<svg width="165" height="36" viewBox="0 0 165 36" fill="none" xmlns="http://www.w3.org/2000/svg">
<path d="M82.696 21.96C82.696 20.472 82.096 19.464 81.4 18.768C80.656 18.024 79.552 17.592 79.096 17.424C78.568 17.208 77.344 16.776 76.624 16.488C75.88 16.2 74.944 15.816 74.944 14.808C74.944 13.8 75.856 13.32 77.104 13.32C78.352 13.32 79.84 14.04 80.8 15L82.456 12.288C81.328 11.16 79.12 10.248 77.2 10.248C75.28 10.248 73.768 10.776 72.832 11.568C71.872 12.36 71.104 13.608 71.104 15.192C71.104 16.752 71.68 17.712 72.4 18.384C73.12 19.08 73.96 19.392 74.368 19.584C74.92 19.824 76.168 20.256 76.888 20.52C77.608 20.784 78.832 21.216 78.832 22.344C78.832 23.448 77.872 24.048 76.624 24.048C75.352 24.048 73.504 23.208 72.304 21.96L70.384 24.792C71.728 26.04 73.864 27.288 76.264 27.288C78.04 27.288 79.576 26.856 80.752 25.92C81.952 24.984 82.696 23.544 82.696 21.96ZM93.6582 22.944C93.6582 22.944 92.4582 24.096 90.6582 24.096C88.8582 24.096 87.6822 22.92 87.6822 21.048C87.6822 19.176 88.9782 18.048 90.6102 18.048C92.2662 18.048 93.3222 18.84 93.6582 19.104L94.4982 16.2C94.4982 16.2 93.1302 14.952 90.1062 14.952C86.8662 14.952 83.8182 17.16 83.8182 21.12C83.8182 25.056 86.8182 27.264 90.0582 27.264C93.2022 27.264 94.4502 25.944 94.5702 25.848L93.6582 22.944ZM100.244 11.808C100.244 10.632 99.3563 9.816 98.0603 9.816C96.7643 9.816 95.8763 10.632 95.8763 11.808C95.8763 13.008 96.7643 13.8 98.0603 13.8C99.3563 13.8 100.244 13.008 100.244 11.808ZM99.9803 15.168H96.1403V27H99.9803V15.168ZM114.177 20.736C114.177 17.28 111.753 14.952 108.249 14.952C104.745 14.952 101.865 17.184 101.865 21.096C101.865 25.008 104.529 27.264 108.177 27.264C111.849 27.264 113.409 25.632 113.793 25.344L112.281 23.352C111.609 23.808 110.265 24.48 108.729 24.48C107.169 24.48 105.873 23.712 105.705 22.008H114.129C114.129 22.008 114.177 21.312 114.177 20.736ZM105.729 19.824C105.777 18.696 106.593 17.448 108.177 17.448C109.785 17.448 110.577 18.744 110.601 19.824H105.729ZM127.56 20.016C127.56 17.16 126.672 14.952 123.24 14.952C121.536 14.952 120.456 15.816 119.808 16.872H119.76L119.784 15.168H115.944V27H119.784V21.144C119.784 19.44 120.24 18.096 121.896 18.096C123.48 18.096 123.72 19.272 123.72 20.832V27H127.56V20.016ZM139.174 22.944C139.174 22.944 137.974 24.096 136.174 24.096C134.374 24.096 133.198 22.92 133.198 21.048C133.198 19.176 134.494 18.048 136.126 18.048C137.782 18.048 138.838 18.84 139.174 19.104L140.014 16.2C140.014 16.2 138.646 14.952 135.622 14.952C132.382 14.952 129.334 17.16 129.334 21.12C129.334 25.056 132.334 27.264 135.574 27.264C138.718 27.264 139.966 25.944 140.086 25.848L139.174 22.944ZM153.224 20.736C153.224 17.28 150.8 14.952 147.296 14.952C143.792 14.952 140.912 17.184 140.912 21.096C140.912 25.008 143.576 27.264 147.224 27.264C150.896 27.264 152.456 25.632 152.84 25.344L151.328 23.352C150.656 23.808 149.312 24.48 147.776 24.48C146.216 24.48 144.92 23.712 144.752 22.008H153.176C153.176 22.008 153.224 21.312 153.224 20.736ZM144.776 19.824C144.824 18.696 145.64 17.448 147.224 17.448C148.832 17.448 149.624 18.744 149.648 19.824H144.776ZM164.015 23.352C164.015 22.104 163.439 21.336 163.055 20.952C162.647 20.568 162.047 20.256 161.519 20.064C161.015 19.872 160.655 19.752 159.839 19.512C159.023 19.272 158.111 18.984 158.111 18.36C158.111 17.736 158.615 17.496 159.527 17.496C160.487 17.496 161.831 18.12 162.503 18.648L163.751 16.392C163.079 15.84 161.687 14.928 159.215 14.928C156.743 14.928 154.727 16.344 154.727 18.648C154.727 20.76 156.191 21.504 156.743 21.744C157.295 21.984 157.967 22.176 158.423 22.296C158.855 22.44 160.583 22.824 160.583 23.592C160.583 24.36 159.911 24.6 158.951 24.6C157.991 24.6 156.407 23.976 155.447 23.16L154.007 25.44C155.351 26.712 157.223 27.264 158.999 27.264C160.583 27.264 161.759 26.904 162.623 26.232C163.487 25.536 164.015 24.576 164.015 23.352Z" fill="#3A3A3A"/>
<path d="M69 27.4965L65.0476 23.393C65.979 22.4615 67.3636 20.4476 67.9427 19.5161H64.5016C64.1082 20.2241 63.3215 20.8142 62.8825 21.1021L60.5916 18.5091C62.2783 17.6028 63.8643 16.0671 63.8643 14.0531C63.8643 11.3594 61.4979 10 58.7287 10C55.9343 10 53.3916 11.3594 53.3916 14.1538C53.3916 15.8406 54.3483 16.9734 55.179 17.9049C52.9385 18.8615 51 20.3972 51 22.8895C51 26.3385 53.8699 28 57.0923 28C59.358 28 60.8937 27.2699 62.6559 25.835L64.3678 27.6979H69V27.4965ZM60.4406 14.179C60.4406 15.2867 59.2825 16.0168 58.5273 16.4951L57.9483 15.8657C57.6713 15.5385 57.1175 14.9846 57.1175 14.2294C57.1175 13.2727 57.7972 12.6937 58.8042 12.6937C59.786 12.6937 60.4406 13.2224 60.4406 14.179ZM60.4909 23.5441C59.8364 24.2741 58.6531 25.0042 57.3692 25.0042C56.0601 25.0042 54.9273 24.1231 54.9273 22.7636C54.9273 21.4294 55.9594 20.7245 56.765 20.2713L57.2685 19.9944L60.4909 23.5441Z" fill="#991C1C"/>
<path d="M13.176 10.416H9.144L2.904 27H6.936L8.112 23.664H14.016L15.192 27H19.416L13.176 10.416ZM9 20.64L11.064 14.688L13.128 20.64H9ZM28.5765 15.168C28.5765 15.168 28.1685 14.952 27.3765 14.952C26.1045 14.952 25.1205 15.552 24.4485 16.848H24.4005L24.4245 15.168H20.5845V27H24.4245V21.744C24.4245 20.424 24.7365 19.656 25.0245 19.272C25.3125 18.888 25.9365 18.408 26.8005 18.408C27.4725 18.408 27.9765 18.576 28.1925 18.696H28.3605L28.5765 15.168ZM36.9218 15.192H34.3058V11.976H30.4418V15.192H28.7618V18.096H30.4418V22.68C30.4418 24.48 30.6818 25.464 31.2818 26.16C31.8818 26.856 32.7938 27.264 34.1618 27.264C35.5538 27.264 36.6098 26.952 36.8978 26.88L36.7058 23.88C36.7058 23.88 36.1538 24.096 35.5538 24.096C35.0498 24.096 34.8098 24 34.6418 23.808C34.4498 23.592 34.3058 23.352 34.3058 22.344V18.096H36.9218V15.192ZM47.4913 23.352C47.4913 22.104 46.9153 21.336 46.5313 20.952C46.1233 20.568 45.5233 20.256 44.9953 20.064C44.4913 19.872 44.1313 19.752 43.3153 19.512C42.4993 19.272 41.5873 18.984 41.5873 18.36C41.5873 17.736 42.0913 17.496 43.0033 17.496C43.9633 17.496 45.3073 18.12 45.9793 18.648L47.2273 16.392C46.5553 15.84 45.1633 14.928 42.6913 14.928C40.2193 14.928 38.2033 16.344 38.2033 18.648C38.2033 20.76 39.6673 21.504 40.2193 21.744C40.7713 21.984 41.4433 22.176 41.8993 22.296C42.3313 22.44 44.0593 22.824 44.0593 23.592C44.0593 24.36 43.3873 24.6 42.4273 24.6C41.4673 24.6 39.8833 23.976 38.9233 23.16L37.4833 25.44C38.8273 26.712 40.6993 27.264 42.4753 27.264C44.0593 27.264 45.2353 26.904 46.0993 26.232C46.9633 25.536 47.4913 24.576 47.4913 23.352Z" fill="black"/>
</svg>
