<svg width="140" height="28" viewBox="0 0 140 28" fill="none" xmlns="http://www.w3.org/2000/svg">
<path d="M68.58 15.8C68.58 14.56 68.08 13.72 67.5 13.14C66.88 12.52 65.96 12.16 65.58 12.02C65.14 11.84 64.12 11.48 63.52 11.24C62.9 11 62.12 10.68 62.12 9.84C62.12 9 62.88 8.6 63.92 8.6C64.96 8.6 66.2 9.2 67 10L68.38 7.74C67.44 6.8 65.6 6.04 64 6.04C62.4 6.04 61.14 6.48 60.36 7.14C59.56 7.8 58.92 8.84 58.92 10.16C58.92 11.46 59.4 12.26 60 12.82C60.6 13.4 61.3 13.66 61.64 13.82C62.1 14.02 63.14 14.38 63.74 14.6C64.34 14.82 65.36 15.18 65.36 16.12C65.36 17.04 64.56 17.54 63.52 17.54C62.46 17.54 60.92 16.84 59.92 15.8L58.32 18.16C59.44 19.2 61.22 20.24 63.22 20.24C64.7 20.24 65.98 19.88 66.96 19.1C67.96 18.32 68.58 17.12 68.58 15.8ZM77.7152 16.62C77.7152 16.62 76.7152 17.58 75.2152 17.58C73.7152 17.58 72.7352 16.6 72.7352 15.04C72.7352 13.48 73.8152 12.54 75.1752 12.54C76.5552 12.54 77.4352 13.2 77.7152 13.42L78.4152 11C78.4152 11 77.2752 9.96 74.7552 9.96C72.0552 9.96 69.5152 11.8 69.5152 15.1C69.5152 18.38 72.0152 20.22 74.7152 20.22C77.3352 20.22 78.3752 19.12 78.4752 19.04L77.7152 16.62ZM83.2036 7.34C83.2036 6.36 82.4636 5.68 81.3836 5.68C80.3036 5.68 79.5636 6.36 79.5636 7.34C79.5636 8.34 80.3036 9 81.3836 9C82.4636 9 83.2036 8.34 83.2036 7.34ZM82.9836 10.14H79.7836V20H82.9836V10.14ZM94.8142 14.78C94.8142 11.9 92.7942 9.96 89.8742 9.96C86.9542 9.96 84.5542 11.82 84.5542 15.08C84.5542 18.34 86.7742 20.22 89.8142 20.22C92.8742 20.22 94.1742 18.86 94.4942 18.62L93.2342 16.96C92.6742 17.34 91.5542 17.9 90.2742 17.9C88.9742 17.9 87.8942 17.26 87.7542 15.84H94.7742C94.7742 15.84 94.8142 15.26 94.8142 14.78ZM87.7742 14.02C87.8142 13.08 88.4942 12.04 89.8142 12.04C91.1542 12.04 91.8142 13.12 91.8342 14.02H87.7742ZM105.967 14.18C105.967 11.8 105.227 9.96 102.367 9.96C100.947 9.96 100.047 10.68 99.5066 11.56H99.4666L99.4866 10.14H96.2866V20H99.4866V15.12C99.4866 13.7 99.8666 12.58 101.247 12.58C102.567 12.58 102.767 13.56 102.767 14.86V20H105.967V14.18ZM115.645 16.62C115.645 16.62 114.645 17.58 113.145 17.58C111.645 17.58 110.665 16.6 110.665 15.04C110.665 13.48 111.745 12.54 113.105 12.54C114.485 12.54 115.365 13.2 115.645 13.42L116.345 11C116.345 11 115.205 9.96 112.685 9.96C109.985 9.96 107.445 11.8 107.445 15.1C107.445 18.38 109.945 20.22 112.645 20.22C115.265 20.22 116.305 19.12 116.405 19.04L115.645 16.62ZM127.353 14.78C127.353 11.9 125.333 9.96 122.413 9.96C119.493 9.96 117.093 11.82 117.093 15.08C117.093 18.34 119.313 20.22 122.353 20.22C125.413 20.22 126.713 18.86 127.033 18.62L125.773 16.96C125.213 17.34 124.093 17.9 122.813 17.9C121.513 17.9 120.433 17.26 120.293 15.84H127.313C127.313 15.84 127.353 15.26 127.353 14.78ZM120.313 14.02C120.353 13.08 121.033 12.04 122.353 12.04C123.693 12.04 124.353 13.12 124.373 14.02H120.313ZM136.346 16.96C136.346 15.92 135.866 15.28 135.546 14.96C135.206 14.64 134.706 14.38 134.266 14.22C133.846 14.06 133.546 13.96 132.866 13.76C132.186 13.56 131.426 13.32 131.426 12.8C131.426 12.28 131.846 12.08 132.606 12.08C133.406 12.08 134.526 12.6 135.086 13.04L136.126 11.16C135.566 10.7 134.406 9.94 132.346 9.94C130.286 9.94 128.606 11.12 128.606 13.04C128.606 14.8 129.826 15.42 130.286 15.62C130.746 15.82 131.306 15.98 131.686 16.08C132.046 16.2 133.486 16.52 133.486 17.16C133.486 17.8 132.926 18 132.126 18C131.326 18 130.006 17.48 129.206 16.8L128.006 18.7C129.126 19.76 130.686 20.22 132.166 20.22C133.486 20.22 134.466 19.92 135.186 19.36C135.906 18.78 136.346 17.98 136.346 16.96Z" fill="#2C2C2C"/>
<path d="M57 19.5804L53.7063 16.1608C54.4825 15.3846 55.6364 13.7063 56.1189 12.9301H53.2513C52.9235 13.5201 52.2679 14.0118 51.9021 14.2517L49.993 12.0909C51.3986 11.3357 52.7203 10.0559 52.7203 8.37762C52.7203 6.13287 50.7483 5 48.4406 5C46.1119 5 43.993 6.13287 43.993 8.46154C43.993 9.86713 44.7902 10.8112 45.4825 11.5874C43.6154 12.3846 42 13.6643 42 15.7413C42 18.6154 44.3916 20 47.0769 20C48.965 20 50.2448 19.3916 51.7133 18.1958L53.1399 19.7483H57V19.5804ZM49.8671 8.48252C49.8671 9.40559 48.9021 10.014 48.2727 10.4126L47.7902 9.88811C47.5594 9.61538 47.0979 9.15385 47.0979 8.52447C47.0979 7.72727 47.6643 7.24475 48.5035 7.24475C49.3217 7.24475 49.8671 7.68531 49.8671 8.48252ZM49.9091 16.2867C49.3636 16.8951 48.3776 17.5035 47.3077 17.5035C46.2168 17.5035 45.2727 16.7692 45.2727 15.6364C45.2727 14.5245 46.1329 13.9371 46.8042 13.5594L47.2238 13.3287L49.9091 16.2867Z" fill="#991C1C"/>
<path d="M11.48 6.18H8.12L2.92 20H6.28L7.26 17.22H12.18L13.16 20H16.68L11.48 6.18ZM8 14.7L9.72 9.74L11.44 14.7H8ZM24.3138 10.14C24.3138 10.14 23.9738 9.96 23.3138 9.96C22.2538 9.96 21.4338 10.46 20.8738 11.54H20.8338L20.8538 10.14H17.6538V20H20.8538V15.62C20.8538 14.52 21.1138 13.88 21.3538 13.56C21.5938 13.24 22.1138 12.84 22.8338 12.84C23.3938 12.84 23.8138 12.98 23.9938 13.08H24.1338L24.3138 10.14ZM31.6681 10.16H29.4881V7.48H26.2681V10.16H24.8681V12.58H26.2681V16.4C26.2681 17.9 26.4681 18.72 26.9681 19.3C27.4681 19.88 28.2281 20.22 29.3681 20.22C30.5281 20.22 31.4081 19.96 31.6481 19.9L31.4881 17.4C31.4881 17.4 31.0281 17.58 30.5281 17.58C30.1081 17.58 29.9081 17.5 29.7681 17.34C29.6081 17.16 29.4881 16.96 29.4881 16.12V12.58H31.6681V10.16ZM40.4761 16.96C40.4761 15.92 39.9961 15.28 39.6761 14.96C39.3361 14.64 38.8361 14.38 38.3961 14.22C37.9761 14.06 37.6761 13.96 36.9961 13.76C36.3161 13.56 35.5561 13.32 35.5561 12.8C35.5561 12.28 35.9761 12.08 36.7361 12.08C37.5361 12.08 38.6561 12.6 39.2161 13.04L40.2561 11.16C39.6961 10.7 38.5361 9.94 36.4761 9.94C34.4161 9.94 32.7361 11.12 32.7361 13.04C32.7361 14.8 33.9561 15.42 34.4161 15.62C34.8761 15.82 35.4361 15.98 35.8161 16.08C36.1761 16.2 37.6161 16.52 37.6161 17.16C37.6161 17.8 37.0561 18 36.2561 18C35.4561 18 34.1361 17.48 33.3361 16.8L32.1361 18.7C33.2561 19.76 34.8161 20.22 36.2961 20.22C37.6161 20.22 38.5961 19.92 39.3161 19.36C40.0361 18.78 40.4761 17.98 40.4761 16.96Z" fill="#2C2C2C"/>
</svg>
