<svg width="180" height="77" viewBox="0 0 180 77" fill="none" xmlns="http://www.w3.org/2000/svg">
<path d="M78.7138 76.004H52.4013L49.467 65.6211H28.0606L25.236 76.004H0L25.8783 2.71875H52.8355L78.7138 76.004ZM44.3134 47.3004L38.8186 27.6667L33.3238 47.3004H44.3134Z" fill="#F0F0F0"/>
<path d="M169.46 69.6754C163.547 74.178 156.129 75.9995 147.527 75.9995C138.925 75.9995 124.446 72.3431 116.713 63.554L129.681 47.9151C136.561 53.7048 146.237 55.955 149.462 55.955C152.687 55.955 153.863 54.9897 153.863 52.8464C153.863 50.7031 152.259 49.8402 149.571 48.9874C146.883 48.2369 140.972 46.3074 138.819 45.557C136.668 44.6996 132.369 43.3057 128.606 40.0902C124.842 36.8747 121.833 32.3721 121.833 24.3322C121.833 16.2924 126.025 10.0807 130.432 6.431C134.948 2.67884 142.366 0 152.258 0C162.149 0 172.254 3.53727 178.704 8.89717L166.36 23.7677C160.637 19.45 155.697 18.9734 151.827 18.9734C147.956 18.9734 145.806 19.7228 145.806 21.9741C145.806 24.1185 149.247 24.8689 150.967 25.4044C152.686 25.94 157.202 27.2271 159.789 28.0844C162.375 28.9417 168.387 31.0906 172.153 34.3016C175.918 37.5127 179.141 42.5552 179.141 50.3802C179.137 58.0983 175.373 65.0659 169.46 69.6754Z" fill="#F0F0F0"/>
<path d="M141.138 74.727H113.807L108.447 69.4271C100.408 74.727 93.9765 75.9995 85.9376 75.9995C71.4678 75.9995 56.998 69.4271 56.998 53.5287C56.998 43.9888 64.5017 37.0977 73.2899 34.2372C69.8609 30.7392 66.3227 25.9665 66.3227 19.3974C66.3227 5.29983 81.1225 0 93.9843 0C106.846 0 118.308 5.29983 118.308 18.867C118.308 27.5589 111.662 34.4489 105.231 37.6292L111.662 43.9888C112.164 43.7164 115.038 41.4293 116.123 40.2097H129.251C130.09 40.8118 131.622 41.8881 132.649 42.5001C133.764 43.1618 134.737 43.551 135.738 44.0274C134.4 45.8172 133.149 47.3588 131.565 49.2578C129.112 52.2021 126.163 55.5225 124.205 57.0256L141.14 73.6672L141.138 74.727ZM85.2964 46.1237L84.2237 46.6542C82.6123 47.3974 79.9282 49.3085 79.9282 53.0248C79.9282 56.741 83.6862 58.8694 86.9066 58.8694C90.1271 58.8694 93.3487 58.3389 95.7105 56.5337L85.2964 46.1237ZM93.3487 15.3349C90.1282 15.3349 88.1957 16.9273 88.1957 19.5816C88.1957 22.2359 90.6646 23.8283 91.2065 24.3587L93.032 26.2698C96.0428 24.3587 98.4002 22.2359 98.4002 19.5816C98.4002 16.9273 96.5691 15.3294 93.3487 15.3294V15.3349Z" fill="#F0F0F0"/>
</svg>
