<svg width="121" height="121" viewBox="0 0 121 121" fill="none" xmlns="http://www.w3.org/2000/svg">
<path fill-rule="evenodd" clip-rule="evenodd" d="M46.4928 92.1838C53.3486 97.5732 60.1037 100.423 60.3891 100.54L60.9114 100.76L61.4375 100.537C61.7192 100.412 68.45 97.5248 75.2853 92.1913C84.4861 85.0123 89.3533 76.8399 89.3533 68.5484L89.3477 30.6461L32.408 30.6517L32.4043 67.8917C32.4043 76.5273 37.2752 84.923 46.4928 92.1838ZM59.6149 80.5642C59.3239 80.4638 58.9993 80.3894 58.5944 80.3894H58.5292C57.1449 80.3894 56.1077 80.4842 55.007 80.581C53.9232 80.6833 52.7983 80.7838 51.1473 80.8191C50.3917 80.8358 49.7089 80.8284 49.1959 80.8191V62.9972H49.431C50.1156 63.0028 50.957 62.9972 52.0147 62.9767C52.9065 62.9525 53.8896 62.8465 55.0257 62.7275C55.6506 62.6586 56.3148 62.5898 57.061 62.5228C58.2419 62.3963 59.3351 62.6065 59.3351 62.6065L59.6149 62.6977V80.5642ZM86.6557 68.5484C86.6557 84.0654 67.5471 94.5818 61.9207 97.3388V83.2226L62.2042 82.9287C62.4859 82.6032 62.6632 82.4097 63.2004 82.406C64.5026 82.4246 65.482 82.4897 66.5957 82.5901C67.6628 82.685 68.8698 82.7985 70.5861 82.8338C72.2818 82.8785 73.6026 82.8041 73.6549 82.7985L74.6119 82.7464V77.4742H76.8524V74.6633H74.6119V69.5567H76.8524V66.7476H74.6082V61.0122L73.6231 60.9899C73.2612 60.9787 72.8452 60.9787 72.3546 60.9825C71.6681 60.9732 70.8528 60.9825 69.8193 60.9564C69.0116 60.9397 68.0676 60.8411 66.9744 60.7239C66.3401 60.655 65.6592 60.5825 64.9466 60.5211C63.4187 60.3425 62.0662 60.6216 61.9878 60.642L61.9207 60.6606V55.2452H86.6539L86.6557 68.5484ZM61.9207 80.6535V62.7851C62.0531 62.7237 62.208 62.6605 62.4207 62.614C62.4356 62.6084 63.5288 62.387 64.7451 62.5265C65.4671 62.5898 66.1368 62.6586 66.7636 62.7312C67.8978 62.8465 68.8791 62.9525 69.7708 62.9767C70.67 62.9972 71.4162 62.9972 72.0468 62.9972C72.2371 62.9972 72.418 62.9972 72.5859 62.9972L72.5896 80.8191C72.0766 80.8284 71.3957 80.8414 70.6364 80.8191C68.9854 80.7838 67.8643 80.6833 66.7785 80.5828C65.6667 80.4805 64.6686 80.3857 63.1948 80.3894C62.6744 80.3894 62.2677 80.501 61.9207 80.6535ZM35.1 33.3418L86.652 33.3343L86.6539 52.5533H35.0981L35.1 33.3418ZM35.0981 55.2452H59.6149V60.6085C59.2138 60.5378 58.0926 60.376 56.8595 60.5174C56.1282 60.5825 55.451 60.655 54.8168 60.7239C53.7198 60.8411 52.7759 60.9397 51.9662 60.9564C50.9327 60.9825 50.1082 60.9825 49.431 60.9825C48.9422 60.9825 48.5243 60.9825 48.1587 60.9899L47.1718 61.0122V66.1895H44.7485V69.006H47.1718V74.1833H44.7485V76.9887H47.1718V82.7464L48.127 82.7985C48.1811 82.8041 49.4963 82.871 51.1976 82.8338C52.9139 82.7985 54.1209 82.685 55.188 82.5901C56.2868 82.4934 57.2363 82.406 58.5292 82.406C59.0384 82.3985 59.2063 82.5585 59.4824 82.9027L59.6149 83.0534V97.216C53.6695 94.3009 35.0981 83.9054 35.0981 67.8917V55.2452Z" fill="#F7F7F7"/>
<path fill-rule="evenodd" clip-rule="evenodd" d="M56.6225 35.2654H42.2356V36.2699C42.2319 39.4046 42.23 44.7028 42.2486 44.9446C42.3177 46.031 43.0359 47.0133 44.4481 47.949C46.1849 49.1117 48.7743 50.6242 48.8825 50.6893L49.3768 50.9776L49.8749 50.7042C49.9925 50.6428 52.787 49.121 54.5313 47.949C56.5722 46.5947 56.6076 45.3557 56.6225 44.9446C56.6375 44.7232 56.6319 40.1041 56.6225 36.2699V35.2654ZM44.2616 37.2782H54.6059C54.6059 38.1172 54.6078 39.0158 54.6078 39.8901H44.2578C44.2578 39.0176 44.2578 38.1172 44.2616 37.2782ZM54.6022 44.8869C54.5873 45.3892 53.9436 45.9194 53.4064 46.2748C52.1677 47.1063 50.2965 48.1667 49.4104 48.6597C48.5672 48.1574 46.8173 47.1063 45.5767 46.2748C44.7671 45.7371 44.2877 45.2069 44.2616 44.8125C44.2578 44.6656 44.2578 43.4694 44.2578 41.9067H54.6078C54.6078 43.4805 54.6059 44.6972 54.6022 44.8869Z" fill="#F7F7F7"/>
<path fill-rule="evenodd" clip-rule="evenodd" d="M81.1058 34.8375H66.3961V35.8439C66.3943 39.7822 66.3943 44.5167 66.4073 44.7623C66.4913 45.8562 67.2244 46.8589 68.6628 47.8114C70.4369 49.0038 73.0915 50.5553 73.2016 50.6205L73.6941 50.9088L74.1959 50.6335C74.3135 50.5721 77.1845 49.0169 78.9773 47.8114C81.0685 46.4217 81.1002 45.1585 81.1058 44.7418C81.1226 44.5167 81.117 39.7785 81.1077 35.842L81.1058 34.8375ZM79.0873 44.6972C79.0743 45.2181 78.4083 45.765 77.8542 46.1445C76.5726 46.9947 74.6343 48.0867 73.7295 48.589C72.8714 48.0811 71.0712 46.9947 69.7877 46.1445C69.3941 45.8785 68.4687 45.1995 68.4296 44.6098C68.4258 44.5558 68.4258 44.366 68.4221 44.0796L73.5206 40.411L79.0911 44.113C79.0911 44.4219 79.0892 44.6284 79.0873 44.6972ZM73.4758 37.9516L68.4184 41.596C68.4147 40.1487 68.4147 38.4 68.4184 36.8541H79.0873C79.0911 38.4298 79.0948 40.2175 79.0948 41.6946L73.4758 37.9516Z" fill="#F7F7F7"/>
<path fill-rule="evenodd" clip-rule="evenodd" d="M64.5473 66.7755L65.5081 66.8741C66.161 66.9485 66.7263 67.0025 67.2187 67.0174L70.1961 67.1011L70.2409 65.0808L67.271 64.997C66.8233 64.9915 66.3196 64.9338 65.7245 64.8724L64.7432 64.7719C64.4764 64.744 64.2283 64.7403 63.9951 64.7496L64.0828 66.7606C64.2246 66.7551 64.3776 66.7606 64.5473 66.7755Z" fill="#F7F7F7"/>
<path fill-rule="evenodd" clip-rule="evenodd" d="M67.2841 70.5855C66.8625 70.5743 66.3756 70.5204 65.8196 70.4627C65.4876 70.4218 65.1313 70.3883 64.7693 70.3567C64.51 70.3288 64.2638 70.325 64.0399 70.3288L64.0735 72.3453C64.2171 72.3416 64.3776 72.3453 64.566 72.3639C64.9391 72.3974 65.2842 72.4346 65.6051 72.4663C66.2245 72.5332 66.7655 72.5872 67.2374 72.6021C67.8568 72.6095 68.7634 72.6393 69.435 72.6523L70.2148 72.6746L70.2577 70.6617L69.4854 70.6394C68.8119 70.6227 67.9034 70.5948 67.2841 70.5855Z" fill="#F7F7F7"/>
<path fill-rule="evenodd" clip-rule="evenodd" d="M67.2711 76.3432C66.8364 76.3283 66.3439 76.2762 65.7805 76.2111C65.4485 76.1776 65.1033 76.1423 64.7563 76.1088C64.4877 76.0809 64.2396 76.0734 64.0101 76.0809L64.0736 78.0919C64.2097 78.0919 64.3664 78.0919 64.5511 78.1142C64.9056 78.1477 65.2451 78.1868 65.5585 78.2147C66.1909 78.2891 66.7375 78.3393 67.2188 78.3542L68.0583 78.3765C68.9127 78.3988 69.866 78.423 70.2 78.4305L70.2354 76.4101C69.9015 76.4027 68.9575 76.3841 68.1124 76.3599L67.2711 76.3432Z" fill="#F7F7F7"/>
<path fill-rule="evenodd" clip-rule="evenodd" d="M54.5034 66.9932C54.994 66.982 55.5593 66.9225 56.2122 66.8481C56.5181 66.8183 56.839 66.7848 57.1804 66.7476L57.6393 66.7327L57.671 64.7124C57.4658 64.7124 57.2326 64.7217 56.9939 64.744C56.6357 64.7757 56.3055 64.8147 55.9958 64.8482C55.41 64.9096 54.9082 64.9691 54.4567 64.9766L51.4868 65.0491L51.5335 67.0713L54.5034 66.9932Z" fill="#F7F7F7"/>
<path fill-rule="evenodd" clip-rule="evenodd" d="M56.0126 70.4217C55.4268 70.4869 54.9175 70.5445 54.4735 70.5538L51.4999 70.6338L51.5484 72.6523L54.5202 72.5741C55.0164 72.5611 55.5779 72.4997 56.2327 72.429L57.1804 72.3304L57.6225 72.3174L57.714 70.3027C57.505 70.2915 57.2625 70.3027 57.0088 70.325L56.0126 70.4217Z" fill="#F7F7F7"/>
<path fill-rule="evenodd" clip-rule="evenodd" d="M55.9976 76.1776C55.4118 76.239 54.9044 76.3004 54.3597 76.3078C53.4213 76.3339 51.9289 76.3785 51.4905 76.3897L51.5278 78.4044C51.9681 78.3932 53.4679 78.3523 54.507 78.3281C54.9977 78.3151 55.5611 78.2519 56.2196 78.1793L57.199 78.0844L57.6355 78.0677L57.6691 76.0511C57.4546 76.0474 57.2176 76.0511 56.9938 76.0734L55.9976 76.1776" fill="#F7F7F7"/>
<path fill-rule="evenodd" clip-rule="evenodd" d="M9.59266 60.5881C12.1242 60.5881 13.6726 58.9752 13.8591 56.1735C13.8871 55.6229 13.8479 55.0146 13.7099 54.2648L13.6614 54.0174L11.5739 53.9988L11.7716 54.4286C11.9208 54.7578 12.0085 55.4629 11.9749 56.0526C11.8798 57.5111 10.7791 58.4003 9.23075 58.2943C7.65624 58.1957 6.65445 57.1781 6.74213 55.755C6.77012 55.2936 6.8522 54.7839 7.23463 54.2128L7.49394 53.8109L5.43626 53.5077L5.33926 53.7142C5.07995 54.2704 4.90086 54.9792 4.86168 55.6043C4.68259 58.5324 6.3056 60.3946 9.2065 60.5751L9.59266 60.5881Z" fill="#F7F7F7"/>
<path fill-rule="evenodd" clip-rule="evenodd" d="M9.92463 50.693C10.4843 50.8493 11.029 50.9311 11.5439 50.9311C13.4654 50.9311 14.8851 49.8131 15.4391 47.8635C15.7712 46.6989 15.6779 45.5976 15.1668 44.686C14.609 43.6777 13.5941 42.9578 12.2416 42.5764C11.7006 42.422 11.1783 42.3476 10.682 42.3476C8.74935 42.3476 7.32595 43.4619 6.77562 45.4097C6.05739 47.9137 7.26626 49.934 9.92463 50.693ZM8.58892 45.9194C8.893 44.8311 9.82016 44.6042 10.5421 44.6042C10.8854 44.6042 11.2566 44.6618 11.6204 44.7623C12.5028 45.0153 13.1949 45.4748 13.5046 46.031C13.7228 46.4217 13.7639 46.8607 13.6296 47.35C13.3162 48.4402 12.4039 48.6653 11.695 48.6653C11.335 48.6653 10.9488 48.6095 10.5459 48.4941C9.39669 48.1686 8.19342 47.2998 8.58892 45.9194Z" fill="#F7F7F7"/>
<path fill-rule="evenodd" clip-rule="evenodd" d="M18.6329 39.3785L15.6555 37.7898L15.7507 37.6075C16.0324 37.0773 16.2469 37.1219 16.7077 37.1796L19.6123 37.5461L20.7596 35.3881L16.898 34.9863C16.6424 34.9677 16.3607 34.9751 16.1443 35.0291C16.176 34.2068 15.7488 33.4366 14.969 33.0218C14.5325 32.7911 14.109 32.6739 13.7191 32.6739C12.3107 32.6739 11.5588 34.0915 10.8966 35.3453L9.88733 37.2373L17.5938 41.3337L18.6329 39.3785ZM14.096 36.7145L13.984 36.9117L12.5867 36.1657L12.6931 35.9704C13.0438 35.323 13.4206 34.7835 14.0195 35.0979C14.2303 35.2151 14.3534 35.3453 14.4094 35.5127C14.5176 35.8643 14.2788 36.3666 14.096 36.7145Z" fill="#F7F7F7"/>
<path fill-rule="evenodd" clip-rule="evenodd" d="M23.4479 31.807L19.4893 28.5291L25.1083 29.8053L26.6734 27.9264L19.9501 22.3621L18.5845 24.016L22.545 27.292L16.9335 25.9953L15.359 27.8929L22.0805 33.4478L23.4479 31.807Z" fill="#F7F7F7"/>
<path fill-rule="evenodd" clip-rule="evenodd" d="M33.1617 22.3919L31.9715 20.9315L29.537 22.9091L28.4774 21.6106L30.7011 19.8116L29.4997 18.3531L27.2853 20.1539L26.4066 19.0712L28.8262 17.1086L27.6341 15.6482L23.5001 19.008L29.009 25.7628L33.1617 22.3919Z" fill="#F7F7F7"/>
<path fill-rule="evenodd" clip-rule="evenodd" d="M40.413 18.0778L39.4784 16.4296L36.7753 17.9476L33.4173 12.0038L31.4846 13.094L35.7641 20.6748L40.413 18.0778Z" fill="#F7F7F7"/>
<path fill-rule="evenodd" clip-rule="evenodd" d="M47.7427 15.2743L47.0954 13.5088L44.1777 14.5618L41.8458 8.14923L39.7601 8.9008L42.7301 17.0825L47.7427 15.2743Z" fill="#F7F7F7"/>
<path fill-rule="evenodd" clip-rule="evenodd" d="M56.5331 13.8344C56.7065 13.8344 56.8856 13.8251 57.0666 13.8065C58.2736 13.7042 59.1634 13.3284 59.7138 12.6847C60.2287 12.0689 60.4451 11.2188 60.3537 10.1584L59.9022 4.69461L57.6953 4.8732L58.1057 9.84213C58.2531 11.5964 57.5498 11.8792 56.9192 11.9387L56.755 11.9443C56.2383 11.9443 55.5313 11.749 55.3913 10.0672L54.9847 5.10016L52.7759 5.28247L53.2311 10.7462C53.3971 12.7647 54.5351 13.8344 56.5331 13.8344Z" fill="#F7F7F7"/>
<path fill-rule="evenodd" clip-rule="evenodd" d="M66.5285 8.63666L68.4127 14.0744L70.8454 14.4018L72.0169 5.77175L69.8921 5.48526L69.2037 10.577L67.3195 5.13924L64.8832 4.80997L63.7153 13.4419L65.8402 13.7302L66.5285 8.63666Z" fill="#F7F7F7"/>
<path fill-rule="evenodd" clip-rule="evenodd" d="M78.5723 7.63392L76.4606 6.96793L73.8451 15.2854L75.9569 15.9421L78.5723 7.63392Z" fill="#F7F7F7"/>
<path fill-rule="evenodd" clip-rule="evenodd" d="M89.5138 12.5266L87.5214 11.5276L83.309 15.8008L84.2436 9.87935L82.1319 8.80594L80.8353 17.9159L82.9844 18.9949L89.5138 12.5266Z" fill="#F7F7F7"/>
<path fill-rule="evenodd" clip-rule="evenodd" d="M91.7001 24.9759L92.8642 23.5007L90.3831 21.5659L91.4166 20.2432L93.6664 22.0031L94.8268 20.5204L92.5751 18.7605L93.4351 17.6648L95.8938 19.5809L97.0598 18.1039L92.8586 14.826L87.4822 21.6831L91.7001 24.9759Z" fill="#F7F7F7"/>
<path fill-rule="evenodd" clip-rule="evenodd" d="M95.3155 28.6296L97.8508 26.4102L97.9888 26.5739C98.3153 26.9441 98.3246 27.1004 98.056 27.6194L96.6848 30.196L98.3023 32.0321L100.048 28.5607C100.11 28.4342 100.233 28.1645 100.276 27.8538C101.022 28.1794 101.921 28.0324 102.572 27.4669C104.453 25.8186 102.949 24.1071 101.852 22.8607L100.416 21.2292L93.8492 26.9739L95.3155 28.6296ZM100.453 24.1332L100.606 24.3024C100.916 24.6633 101.24 25.067 101.211 25.4019L100.955 25.8447L100.47 26.0605C100.095 26.0605 99.7107 25.6772 99.416 25.3442L99.2686 25.1749L100.453 24.1332Z" fill="#F7F7F7"/>
<path fill-rule="evenodd" clip-rule="evenodd" d="M103.451 35.5965C103.024 35.8476 102.487 35.4198 102.242 35.0105C101.97 34.5491 101.813 33.9687 101.793 33.3436L101.778 32.8897L99.7778 33.8087L99.9196 34.2552C100.117 34.9268 100.24 35.3342 100.664 36.0504C101.375 37.2466 102.319 37.9089 103.322 37.9089C103.787 37.9089 104.257 37.7712 104.723 37.4866C106.272 36.5787 106.029 35.1314 105.854 34.0729C105.729 33.325 105.673 32.8618 105.983 32.6776L106.421 32.5456C106.82 32.5456 107.087 32.9251 107.186 33.0851C107.438 33.5129 107.606 34.0227 107.675 34.5454L107.727 34.9491L109.544 34.1287L109.495 33.8906C109.369 33.2748 109.119 32.659 108.734 32.0061C107.783 30.4118 106.22 29.8946 104.764 30.7559C103.27 31.6359 103.487 33.0516 103.649 34.0803C103.779 34.8989 103.833 35.3733 103.451 35.5965Z" fill="#F7F7F7"/>
<path fill-rule="evenodd" clip-rule="evenodd" d="M104.453 43.4805L112.536 40.1877L111.7 38.147L103.619 41.436L104.453 43.4805Z" fill="#F7F7F7"/>
<path fill-rule="evenodd" clip-rule="evenodd" d="M112.568 46.3399L105.921 47.9695L106.449 50.1182L113.096 48.4811L113.646 50.7116L115.476 50.2614L113.85 43.6684L112.012 44.113L112.568 46.3399Z" fill="#F7F7F7"/>
<path fill-rule="evenodd" clip-rule="evenodd" d="M107.453 56.8916L107.578 59.098L111.006 58.9063L116.465 61.6987L116.338 59.3045L113.15 57.7269L116.142 55.8536L116 53.2658L110.881 56.7019L107.453 56.8916Z" fill="#F7F7F7"/>
<path fill-rule="evenodd" clip-rule="evenodd" d="M11.294 76.825L13.1054 76.3004L12.3461 73.6736L13.6837 73.2885L14.4859 76.0511L16.2954 75.5265L14.8814 70.6338L6.48462 73.0448L7.11144 75.1786L10.5328 74.1908L11.294 76.825Z" fill="#F7F7F7"/>
<path fill-rule="evenodd" clip-rule="evenodd" d="M19.0733 84.0431C19.4128 83.0385 19.3065 81.9223 18.7524 80.8098C17.9801 79.2397 16.6985 78.3765 15.1631 78.3765C14.4207 78.3765 13.6427 78.5737 12.8517 78.9607C11.5739 79.5857 10.7064 80.4806 10.3463 81.5484C10.0031 82.5437 10.1169 83.6599 10.6709 84.7742C11.4395 86.3294 12.7249 87.1889 14.2957 87.1889C15.0456 87.1889 15.8291 86.9917 16.6127 86.6103C17.8551 85.9983 18.7039 85.1128 19.0733 84.0431ZM15.5997 84.5472C15.0419 84.8226 14.4953 84.9639 14.0084 84.9639C13.2472 84.9639 12.6988 84.6179 12.3611 83.9426C12.1354 83.4794 12.0906 83.0311 12.2399 82.6013C12.4451 82.0023 13.0383 81.4275 13.8666 81.0219C14.3815 80.7708 14.9132 80.6331 15.3963 80.6331C16.1705 80.6331 16.7339 80.9735 17.0585 81.6433C17.2842 82.1009 17.3197 82.5511 17.1704 82.9864C16.9634 83.5947 16.3888 84.1677 15.5997 84.5472Z" fill="#F7F7F7"/>
<path fill-rule="evenodd" clip-rule="evenodd" d="M25.0877 90.7886L21.1795 93.8916C20.1254 94.7306 19.3718 94.8069 18.7636 94.0442C18.5155 93.7316 18.411 93.4303 18.4502 93.127C18.5024 92.6954 18.8457 92.2303 19.4725 91.7318L23.377 88.6362L21.9872 86.8968L17.6853 90.3012C16.7917 91.0118 16.3123 91.8043 16.2787 92.6694C16.2358 93.4675 16.5809 94.3306 17.2936 95.2162C18.1405 96.2821 19.049 96.8198 20.0042 96.8198C20.7131 96.8198 21.4406 96.5258 22.1738 95.9435L26.4794 92.5299L25.0877 90.7886Z" fill="#F7F7F7"/>
<path fill-rule="evenodd" clip-rule="evenodd" d="M32.5162 97.8746L29.2516 101.848L30.4959 96.2208L28.5651 94.6544L23.03 101.391L24.709 102.745L27.9737 98.7675L26.7462 104.417L28.6509 105.976L34.1859 99.2382L32.5162 97.8746Z" fill="#F7F7F7"/>
<path fill-rule="evenodd" clip-rule="evenodd" d="M38.9654 101.993L36.7155 100.868L32.7867 108.65L35.0366 109.773C36.1204 110.316 37.0644 110.577 37.9319 110.577C39.4411 110.577 40.6276 109.753 41.4521 108.116C42.7543 105.535 41.9204 103.476 38.9654 101.993ZM39.3926 107.079C38.943 107.985 38.1613 108.493 37.2491 108.493C36.876 108.493 36.5066 108.402 36.1727 108.237L35.6335 107.971L37.8628 103.545L38.3983 103.816C38.9598 104.097 39.3926 104.588 39.5866 105.169C39.7825 105.775 39.7172 106.438 39.3926 107.079Z" fill="#F7F7F7"/>
<path fill-rule="evenodd" clip-rule="evenodd" d="M43.7841 113.483L49.0094 114.87L49.4926 113.059L46.4219 112.236L46.8491 110.623L49.6418 111.368L50.1325 109.554L47.3398 108.806L47.6961 107.461L50.7425 108.268L51.235 106.454L46.0283 105.067L43.7841 113.483Z" fill="#F7F7F7"/>
<path fill-rule="evenodd" clip-rule="evenodd" d="M56.6636 107.132L54.1414 106.986L53.6564 115.682L56.1655 115.827C56.3595 115.838 56.5461 115.84 56.7401 115.84C59.6652 115.84 61.2304 114.467 61.3853 111.76C61.458 110.415 61.1521 109.351 60.4674 108.584C59.6764 107.708 58.4303 107.228 56.6636 107.132ZM56.5871 113.963L55.9864 113.933L56.2737 108.997L56.8632 109.027C58.0385 109.089 59.1821 110.009 59.0925 111.624C58.9936 113.3 57.7232 114.028 56.5871 113.963Z" fill="#F7F7F7"/>
<path fill-rule="evenodd" clip-rule="evenodd" d="M69.0731 106.471L67.59 115.693L69.8734 115.2L70.1756 113.246L72.9795 112.634L74.0466 114.314L76.4419 113.793L71.2707 106.004L69.0731 106.471ZM70.448 111.26L70.7278 108.986L71.9199 110.943L70.448 111.26Z" fill="#F7F7F7"/>
<path fill-rule="evenodd" clip-rule="evenodd" d="M77.3728 110.971L78.1283 113.064L80.2308 112.309L79.4641 110.212L77.3728 110.971Z" fill="#F7F7F7"/>
<path fill-rule="evenodd" clip-rule="evenodd" d="M81.6262 102.161L79.4062 103.353L83.5757 111.012L85.7845 109.814C88.6873 108.248 89.4615 106.164 88.0828 103.625C86.7154 101.102 84.5234 100.585 81.6262 102.161ZM85.1633 108.011L84.6391 108.298L82.2754 103.956L82.8052 103.668C83.1541 103.476 83.5515 103.372 83.9469 103.372C84.8293 103.372 85.6017 103.87 86.0643 104.711C86.8329 106.136 86.1949 107.453 85.1633 108.011Z" fill="#F7F7F7"/>
<path fill-rule="evenodd" clip-rule="evenodd" d="M89.7469 104.903L91.0304 106.735L92.8624 105.463L91.5882 103.63L89.7469 104.903Z" fill="#F7F7F7"/>
<path fill-rule="evenodd" clip-rule="evenodd" d="M93.2336 93.7558L92.8456 97.1751L94.7633 97.4374L94.9238 96.0087L99.0895 100.228L100.681 98.6615L94.5488 92.4592L93.2336 93.7558Z" fill="#F7F7F7"/>
<path fill-rule="evenodd" clip-rule="evenodd" d="M105.065 89.1962C104.341 88.6623 103.522 88.5748 102.617 88.9246C102.632 88.067 102.184 87.334 101.653 86.9396C100.565 86.1434 99.1118 86.5917 98.0485 88.026C96.9926 89.4473 97.0877 90.8854 98.3003 91.7857C98.9066 92.2304 99.692 92.3327 100.449 92.0648C100.393 93.0154 100.699 93.7242 101.378 94.2191C101.865 94.5818 102.376 94.7623 102.897 94.7623C103.776 94.7623 104.652 94.2284 105.378 93.2573C105.986 92.4276 106.257 91.596 106.139 90.8481C106.046 90.2026 105.684 89.6538 105.065 89.1962ZM100.916 89.8324C100.606 90.0259 100.28 90.1952 99.9923 90.1952L99.6248 90.0836C99.1976 89.7599 99.4103 89.2334 99.6024 88.9767C99.748 88.7757 99.9289 88.6771 100.136 88.6771L100.597 88.8464C100.86 89.0436 100.974 89.4976 100.916 89.8324ZM103.914 92.1801C103.619 92.5782 103.061 92.6954 102.682 92.4183C102.332 92.1578 102.224 91.8043 102.315 91.2128C102.942 90.8054 103.401 90.7365 103.794 91.0286C103.975 91.1644 104.082 91.3337 104.111 91.5253C104.143 91.7318 104.072 91.9662 103.914 92.1801Z" fill="#F7F7F7"/>
<path fill-rule="evenodd" clip-rule="evenodd" d="M109.025 80.6833C107.514 79.928 106.074 80.3745 105.346 81.8255C105.145 82.2367 105.061 82.6329 105.1 83.0236C104.557 82.579 104.065 81.8869 104.494 81.0368C104.708 80.6014 104.992 80.3131 105.341 80.0099L105.636 79.7587L104.029 78.6072L103.848 78.7858C103.401 79.2192 103.048 79.7048 102.774 80.2573C102.341 81.1242 102.259 81.9613 102.53 82.7687C103.003 84.1789 104.438 85.1369 105.557 85.6932C106.531 86.1843 107.365 86.4205 108.091 86.4205C109.199 86.4205 110.033 85.8718 110.576 84.789C111.422 83.0999 110.855 81.6023 109.025 80.6833ZM108.949 83.9779C108.809 84.2644 108.591 84.404 108.279 84.404C108.065 84.404 107.82 84.337 107.565 84.2068C107.136 83.9928 106.843 83.7287 106.761 83.4552C106.705 83.2952 106.723 83.1352 106.807 82.9585C106.94 82.698 107.152 82.5715 107.464 82.5715C107.701 82.5715 107.977 82.6459 108.26 82.7873C108.632 82.9734 108.902 83.2338 108.99 83.4998L108.949 83.9779Z" fill="#F7F7F7"/>
<path fill-rule="evenodd" clip-rule="evenodd" d="M112.12 71.8895C110.374 71.3687 108.967 72.1556 108.473 73.8299L108.371 74.2559L107.346 73.9303L108.238 70.9352L106.494 70.4218L105 75.4521L109.839 76.9868L109.835 76.5627C109.831 76.0939 109.893 75.6511 110.027 75.2028C110.152 74.7861 110.6 73.7573 111.534 74.0345C112.527 74.3322 112.297 75.3981 112.206 75.72C112.033 76.3078 111.686 76.732 111.396 77.0817L111.117 77.4221L113.154 78.0919L113.277 77.8705C113.613 77.2863 113.909 76.6073 114.066 76.066C114.372 75.0484 114.331 74.1108 113.95 73.3555C113.592 72.6523 112.945 72.1333 112.12 71.8895Z" fill="#F7F7F7"/>
<path fill-rule="evenodd" clip-rule="evenodd" d="M16.6537 60.2625C16.6537 84.4672 36.391 104.151 60.6578 104.151C84.9227 104.151 104.662 84.4672 104.662 60.2625C104.662 36.069 84.9227 16.3831 60.6578 16.3831C36.391 16.3831 16.6537 36.069 16.6537 60.2625ZM60.6578 17.9048C84.0813 17.9048 103.141 36.9117 103.141 60.2625C103.141 83.6264 84.0813 102.63 60.6578 102.63C37.2286 102.63 18.1741 83.6264 18.1741 60.2625C18.1741 36.9117 37.2286 17.9048 60.6578 17.9048Z" fill="#F7F7F7"/>
<path fill-rule="evenodd" clip-rule="evenodd" d="M60.6577 0.250305C27.4718 0.250305 0.472046 27.1729 0.472046 60.27C0.472046 93.3558 27.4718 120.284 60.6577 120.284C93.8455 120.284 120.842 93.3558 120.842 60.27C120.842 27.1729 93.8455 0.250305 60.6577 0.250305ZM60.6577 118.718C28.3374 118.718 2.04655 92.5001 2.04655 60.27C2.04655 28.0417 28.3374 1.81856 60.6577 1.81856C92.978 1.81856 119.271 28.0417 119.271 60.27C119.271 92.5001 92.978 118.718 60.6577 118.718Z" fill="#F7F7F7"/>
</svg>
