<?xml version="1.0" encoding="utf-8"?>
<!-- Generator: Adobe Illustrator 19.0.1, SVG Export Plug-In . SVG Version: 6.00 Build 0)  -->
<svg version="1.1" id="Layer_1" xmlns="http://www.w3.org/2000/svg" xmlns:xlink="http://www.w3.org/1999/xlink" x="0px" y="0px"
	 viewBox="0 0 554 72" style="enable-background:new 0 0 554 72;" xml:space="preserve">
<style type="text/css">
	.st0{enable-background:new    ;}
	.st1{fill:#010101;}
	.st2{fill:#B22025;}
	.st3{fill:none;stroke:#231F20;stroke-width:0.5895;stroke-miterlimit:10;}
</style>
<g class="st0">
	<path class="st1" d="M134.1,46.8l-0.7,1.8c-1.5,0.7-2.9,1.3-4.3,1.6c-1.4,0.3-2.9,0.5-4.6,0.5c-1.9,0-3.7-0.2-5.4-0.7
		c-1.7-0.5-3.1-1.2-4.4-2.1c-1.2-0.9-2.3-1.9-3-3.1c-0.8-1.1-1.4-2.4-1.8-3.7c-0.4-1.3-0.6-2.8-0.6-4.4c0-4,1.4-7.4,4.2-10
		c2.8-2.6,6.6-4,11.4-4c1.1,0,2.2,0.1,3.2,0.2c1,0.1,2.1,0.4,3.5,0.8c1.4,0.4,2.2,0.6,2.6,0.7c-0.3,0.7-0.5,1.4-0.6,2
		c-0.2,1.1-0.3,2.3-0.4,3.7h-1.2l0-2.2c-0.1-1.2-0.8-2.2-2-2.8c-1.2-0.6-3-0.9-5.4-0.9c-1.8,0-3.3,0.3-4.5,0.7
		c-1.2,0.4-2.3,1.1-3.3,2.1c-0.9,0.9-1.7,2.1-2.3,3.6c-0.6,1.4-0.9,3.3-0.9,5.5c0,3.8,1.2,6.9,3.5,9.2c2.3,2.3,5.4,3.5,9.2,3.5
		c1.7,0,3.3-0.2,4.8-0.7c1-0.3,2-0.8,3-1.6L134.1,46.8"/>
	<path class="st1" d="M136.6,41.5c0-2.8,0.9-5.1,2.7-6.9c1.8-1.8,4.1-2.7,6.8-2.7c2.6,0,4.8,0.8,6.4,2.5c1.6,1.7,2.5,3.8,2.5,6.5
		c0,1.8-0.4,3.5-1.3,5.1c-0.8,1.5-2,2.7-3.6,3.6c-1.5,0.9-3.3,1.3-5.1,1.3c-1.4,0-2.7-0.2-3.7-0.7c-1-0.5-1.8-1.1-2.4-1.9
		c-0.6-0.7-1.1-1.5-1.4-2.3C136.9,44.5,136.6,43,136.6,41.5 M140.2,40.1c0,1.6,0.3,3.1,0.8,4.7c0.5,1.6,1.3,2.8,2.2,3.5
		c1,0.7,2,1.1,3.2,1.1c1.4,0,2.7-0.6,3.6-1.7c1-1.2,1.5-3,1.5-5.4c0-2-0.3-3.7-0.9-5.2c-0.6-1.5-1.3-2.5-2.2-3.1
		c-0.9-0.6-1.9-0.9-3-0.9c-1.5,0-2.8,0.6-3.7,1.7C140.7,35.9,140.2,37.7,140.2,40.1z"/>
	<path class="st1" d="M155.6,50.2v-1.1l1.8,0c0.3,0,0.5-0.1,0.6-0.1c0.1-0.1,0.3-0.2,0.3-0.3c0.1-0.3,0.2-0.7,0.2-1.3
		c0-0.2,0.1-2,0.1-5.4V34c0-2.1,0-4.3-0.1-6.5c-0.1-1.5-0.1-2.4-0.2-2.5c-0.1-0.1-0.2-0.2-0.3-0.3c-0.2-0.1-1-0.1-2.6-0.1v-1.1
		c2.8-0.4,4.8-0.8,5.9-1.3c0.2-0.1,0.3-0.1,0.4-0.1c0.1,0,0.2,0,0.2,0.1c0,0.1,0.1,0.1,0.1,0.2c0,0.1,0,0.2,0,0.4l0,0.6
		c-0.1,2.3-0.1,4.2-0.1,5.8l0,3v9.8c0.1,3.3,0.1,5.1,0.1,5.3c0,0.6,0.1,1.1,0.2,1.4c0,0.1,0.1,0.2,0.2,0.3c0.1,0.1,0.2,0.1,0.4,0.2
		c0.1,0,0.8,0,2.1,0.1v1.1c-1.7-0.1-3.2-0.2-4.5-0.2C159.2,50,157.6,50.1,155.6,50.2"/>
	<path class="st1" d="M166.9,50.2v-1.1l1.8,0c0.3,0,0.5-0.1,0.6-0.1c0.1-0.1,0.3-0.2,0.3-0.3c0.1-0.3,0.2-0.7,0.2-1.3
		c0-0.2,0.1-2,0.1-5.4V34c0-2.1,0-4.3-0.1-6.5c-0.1-1.5-0.1-2.4-0.2-2.5c-0.1-0.1-0.2-0.2-0.3-0.3c-0.2-0.1-1-0.1-2.6-0.1v-1.1
		c2.8-0.4,4.8-0.8,5.9-1.3c0.2-0.1,0.3-0.1,0.4-0.1c0.1,0,0.2,0,0.2,0.1c0,0.1,0.1,0.1,0.1,0.2c0,0.1,0,0.2,0,0.4l0,0.6
		c-0.1,2.3-0.1,4.2-0.1,5.8l0,3v9.8c0.1,3.3,0.1,5.1,0.1,5.3c0,0.6,0.1,1.1,0.2,1.4c0,0.1,0.1,0.2,0.2,0.3c0.1,0.1,0.2,0.1,0.4,0.2
		c0.1,0,0.8,0,2.1,0.1v1.1c-1.7-0.1-3.2-0.2-4.5-0.2C170.5,50,168.9,50.1,166.9,50.2"/>
	<path class="st1" d="M192.2,47.2l-0.6,1.4c-0.9,0.5-1.5,0.9-1.9,1.1c-0.6,0.3-1.3,0.5-2,0.7c-0.8,0.2-1.6,0.3-2.4,0.3
		c-1.6,0-3.1-0.3-4.5-1c-1.3-0.7-2.4-1.7-3.1-3.1c-0.7-1.4-1.1-3-1.1-4.9c0-1.5,0.2-2.8,0.6-3.9c0.4-1.2,0.8-2,1.3-2.6
		c0.4-0.4,0.9-0.9,1.7-1.4c0.8-0.5,1.5-0.9,2.3-1.2c1-0.4,2.1-0.6,3.2-0.6c1.4,0,2.7,0.3,3.8,1c1.1,0.6,2,1.5,2.5,2.6
		c0.5,1.1,0.8,2.4,0.8,3.8c0,0.4,0,0.8-0.1,1.3c-0.9,0.2-1.7,0.3-2.4,0.3c-1.3,0.1-2.7,0.2-4,0.2h-6c0,1.8,0.3,3.3,0.9,4.4
		c0.6,1.1,1.4,1.9,2.5,2.5c1,0.5,2.1,0.8,3.2,0.8c0.8,0,1.5-0.1,2.3-0.4c0.8-0.2,1.7-0.7,2.8-1.4L192.2,47.2 M180.2,39.5
		c0.3,0,1,0.1,2,0.1c1.9,0.1,3.1,0.1,3.8,0.1c1.7,0,2.8,0,3.3-0.1c0-0.3,0-0.5,0-0.7c0-2-0.4-3.5-1.2-4.4c-0.8-0.9-1.9-1.4-3.2-1.4
		c-1.4,0-2.6,0.5-3.4,1.5C180.7,35.7,180.3,37.3,180.2,39.5z"/>
	<path class="st1" d="M213.5,33.4l0.1,0.4c-0.5,0.7-0.8,1.3-1,1.5h-3.5c0.3,0.7,0.4,1.4,0.4,2.1c0,1-0.2,1.9-0.7,2.8
		c-0.5,0.9-1.2,1.7-2.2,2.4c-0.9,0.7-2,1.1-3,1.3c-0.7,0.2-1.6,0.2-2.8,0.2c-0.8,0.7-1.3,1.2-1.5,1.5c-0.1,0.2-0.2,0.5-0.2,0.7
		c0,0.3,0.1,0.6,0.3,0.8c0.2,0.2,0.5,0.4,0.8,0.5c0.6,0.2,1.6,0.2,3,0.2l4-0.1c1.4,0,2.5,0.2,3.2,0.6c0.7,0.4,1.3,0.9,1.6,1.7
		c0.3,0.8,0.5,1.6,0.5,2.6c0,1.3-0.4,2.6-1.3,4c-0.8,1.3-2.1,2.4-3.8,3.2c-1.7,0.8-3.5,1.2-5.6,1.2c-1.7,0-3.2-0.3-4.4-0.8
		c-1.2-0.5-2.1-1.3-2.7-2.2c-0.6-0.9-0.9-1.9-0.9-2.9c0-0.6,0.1-1.1,0.3-1.6c0.2-0.5,0.5-1,0.9-1.6c1.5-0.7,2.6-1.3,3.3-1.9
		c-1-0.3-1.7-0.7-2-1c-0.3-0.3-0.4-0.6-0.4-0.9c0-0.3,0.2-0.9,0.6-2c0.6-0.5,1.6-1.3,2.9-2.2c-1.1-0.3-2-0.7-2.6-1.1
		c-0.6-0.4-1.1-1-1.4-1.7c-0.3-0.7-0.5-1.5-0.5-2.4c0-1.3,0.3-2.4,1-3.5c0.6-1,1.7-1.8,3.3-2.5c1.5-0.6,3-1,4.3-1
		c0.8,0,1.7,0.1,2.4,0.4c0.8,0.3,1.5,0.7,2.2,1.3C210.5,33.5,212.3,33.4,213.5,33.4 M203.7,50.4c-1.9,0-3,0-3.5,0.1
		c-0.2,0-0.5,0.2-0.8,0.4c-1,0.7-1.5,1.1-1.6,1.2c-0.1,0.1-0.3,0.4-0.4,0.8c-0.3,0.7-0.4,1.4-0.4,2.1c0,1.3,0.5,2.5,1.5,3.4
		c1,0.9,2.4,1.4,4.2,1.4c1.3,0,2.5-0.3,3.6-0.8c1.1-0.5,1.9-1.3,2.5-2.2c0.6-0.9,0.8-1.9,0.8-2.8c0-0.8-0.2-1.4-0.4-1.8
		c-0.2-0.4-0.5-0.7-0.7-1c-0.3-0.2-0.7-0.4-1.2-0.6C207.1,50.4,205.9,50.4,203.7,50.4z M198.2,37.7c0,0.9,0.2,1.8,0.5,2.6
		c0.3,0.8,0.8,1.5,1.5,1.9c0.6,0.4,1.4,0.6,2.2,0.6c1.1,0,2-0.4,2.8-1.1c0.8-0.7,1.2-1.8,1.2-3.4c0-1.6-0.4-2.9-1.2-3.8
		c-0.8-0.9-1.8-1.4-3-1.4c-1.2,0-2.2,0.4-2.9,1.2C198.6,35.1,198.2,36.2,198.2,37.7z"/>
	<path class="st1" d="M229.3,47.2l-0.6,1.4c-0.9,0.5-1.5,0.9-1.9,1.1c-0.6,0.3-1.3,0.5-2,0.7c-0.8,0.2-1.6,0.3-2.4,0.3
		c-1.6,0-3.1-0.3-4.5-1c-1.3-0.7-2.4-1.7-3.1-3.1c-0.7-1.4-1.1-3-1.1-4.9c0-1.5,0.2-2.8,0.6-3.9c0.4-1.2,0.8-2,1.3-2.6
		c0.4-0.4,0.9-0.9,1.7-1.4c0.8-0.5,1.5-0.9,2.3-1.2c1-0.4,2.1-0.6,3.2-0.6c1.4,0,2.7,0.3,3.8,1c1.1,0.6,2,1.5,2.5,2.6
		c0.5,1.1,0.8,2.4,0.8,3.8c0,0.4,0,0.8-0.1,1.3c-0.9,0.2-1.7,0.3-2.4,0.3c-1.3,0.1-2.7,0.2-4,0.2h-6c0,1.8,0.3,3.3,0.9,4.4
		c0.6,1.1,1.4,1.9,2.5,2.5c1,0.5,2.1,0.8,3.2,0.8c0.8,0,1.5-0.1,2.3-0.4c0.8-0.2,1.7-0.7,2.8-1.4L229.3,47.2 M217.3,39.5
		c0.3,0,1,0.1,2,0.1c1.9,0.1,3.1,0.1,3.8,0.1c1.7,0,2.8,0,3.3-0.1c0-0.3,0-0.5,0-0.7c0-2-0.4-3.5-1.2-4.4c-0.8-0.9-1.9-1.4-3.2-1.4
		c-1.4,0-2.6,0.5-3.4,1.5C217.8,35.7,217.3,37.3,217.3,39.5z"/>
	<path class="st1" d="M238.2,41.5c0-2.8,0.9-5.1,2.7-6.9c1.8-1.8,4.1-2.7,6.8-2.7c2.6,0,4.8,0.8,6.4,2.5c1.6,1.7,2.5,3.8,2.5,6.5
		c0,1.8-0.4,3.5-1.3,5.1c-0.8,1.5-2,2.7-3.6,3.6c-1.5,0.9-3.3,1.3-5.1,1.3c-1.4,0-2.7-0.2-3.7-0.7c-1-0.5-1.8-1.1-2.4-1.9
		c-0.6-0.7-1.1-1.5-1.4-2.3C238.5,44.5,238.2,43,238.2,41.5 M241.7,40.1c0,1.6,0.3,3.1,0.8,4.7c0.5,1.6,1.2,2.8,2.2,3.5
		c1,0.7,2,1.1,3.2,1.1c1.4,0,2.7-0.6,3.6-1.7c1-1.2,1.5-3,1.5-5.4c0-2-0.3-3.7-0.9-5.2c-0.6-1.5-1.3-2.5-2.2-3.1
		c-0.9-0.6-1.9-0.9-3-0.9c-1.5,0-2.8,0.6-3.7,1.7C242.2,35.9,241.7,37.7,241.7,40.1z"/>
	<path class="st1" d="M257.8,35.4v-0.8c1-0.4,1.8-0.9,2.6-1.3v-1.1c0-1.6,0.1-2.8,0.3-3.5c0.2-0.7,0.5-1.3,0.9-1.8
		c0.6-0.8,1.4-1.8,2.7-3c0.8-0.8,1.4-1.3,1.8-1.5c0.5-0.3,1.1-0.4,1.8-0.4c0.5,0,1,0.1,1.5,0.2l0.1,3.1l-0.4,0.2
		c-0.4-0.3-0.8-0.6-1.2-0.7c-0.4-0.2-0.8-0.2-1.3-0.2c-0.7,0-1.2,0.1-1.6,0.4c-0.4,0.3-0.7,0.7-0.9,1.2c-0.2,0.5-0.3,1.6-0.3,3.2
		v3.9h2c1,0,2,0,2.9-0.1l0.2,0.1l-0.4,2c-1.1-0.1-1.9-0.1-2.4-0.1c-0.5,0-1.3,0-2.3,0.1V42c0,0.8,0,2.4,0.1,4.6c0,0.8,0,1.3,0.1,1.5
		c0,0.2,0.1,0.4,0.2,0.5c0.1,0.1,0.2,0.2,0.4,0.2c0.4,0.1,1.4,0.2,3,0.3v1.1c-2.9-0.1-4.7-0.1-5.3-0.1c-0.6,0-2.2,0-4.8,0.1v-1.1
		l1.8,0c0.3,0,0.5-0.1,0.6-0.1c0.1-0.1,0.3-0.2,0.3-0.3c0.1-0.3,0.2-0.7,0.3-1.3c0-0.2,0-2,0.1-5.5v-6.6L257.8,35.4"/>
	<path class="st1" d="M277,24.5v-1.2l5.7,0.1l5.3-0.1v1.2c-1.5,0-2.4,0.1-2.7,0.2c-0.3,0.1-0.5,0.3-0.7,0.4
		c-0.2,0.3-0.2,0.9-0.3,1.8c0,0.3,0,2-0.1,5.4V35c2.5,0.1,5.5,0.1,9,0.1c2.7,0,4.9,0,6.5-0.1v-2.6c0-1.7,0-3.4-0.1-5
		c0-1.2-0.1-1.9-0.3-2.1c-0.1-0.2-0.4-0.4-0.7-0.5c-0.3-0.1-1.2-0.2-2.7-0.2v-1.2c2.7,0.1,4.5,0.1,5.5,0.1c0.4,0,2.2,0,5.5-0.1v1.2
		c-1.5,0-2.4,0.1-2.7,0.2c-0.3,0.1-0.5,0.3-0.7,0.4c-0.2,0.3-0.3,0.9-0.3,1.8c0,0.3,0,2-0.1,5.4v8.8c0,1.7,0,3.4,0.1,5
		c0,1.2,0.1,1.9,0.3,2.1c0.1,0.2,0.4,0.4,0.7,0.5c0.3,0.1,1.2,0.2,2.7,0.2v1.2c-2.4-0.1-4.4-0.2-5.9-0.2c-1.6,0-3.3,0-5.1,0.2V49
		c1.5,0,2.4-0.1,2.7-0.2c0.3-0.1,0.5-0.3,0.7-0.4c0.2-0.3,0.3-0.9,0.3-1.8c0-0.3,0-2.1,0.1-5.4v-4.3c-3.5-0.1-6.1-0.1-8-0.1
		c-2,0-4.5,0-7.5,0.1v4.3c0,1.7,0,3.4,0.1,5c0,1.2,0.1,1.9,0.3,2.1c0.1,0.2,0.4,0.4,0.7,0.5c0.3,0.1,1.2,0.2,2.7,0.2v1.2
		c-1.7-0.1-3.4-0.2-5.2-0.2c-1.9,0-3.9,0.1-5.8,0.2V49c1.5,0,2.4-0.1,2.7-0.2c0.3-0.1,0.5-0.3,0.7-0.4c0.2-0.3,0.2-0.9,0.3-1.8
		c0-0.3,0-2.1,0.1-5.4v-8.8c0-1.7,0-3.4-0.1-5c0-1.2-0.1-1.9-0.3-2.1c-0.1-0.2-0.4-0.4-0.7-0.5C279.4,24.5,278.5,24.5,277,24.5"/>
	<path class="st1" d="M330.3,49.1v1.1c-1.6-0.1-2.9-0.1-3.7-0.1c-0.9,0-1.9,0-2.8,0.1c0.1-1,0.1-2.2,0.2-3.5
		c-0.7,0.6-1.6,1.4-2.7,2.5c-0.2,0.2-0.5,0.4-0.7,0.5c-0.5,0.3-1.1,0.5-1.6,0.7c-0.5,0.1-1.2,0.2-1.9,0.2c-1,0-1.9-0.1-2.5-0.4
		c-0.7-0.3-1.3-0.7-1.7-1.3c-0.4-0.4-0.6-1-0.8-1.6c-0.2-0.7-0.3-1.5-0.3-2.4c0-0.4,0-0.9,0-1.3c0-0.4,0-0.8,0-1.2v-3.2
		c0-0.3,0-1.2-0.1-2.5c0-0.8-0.1-1.4-0.2-1.6c-0.1-0.1-0.1-0.2-0.2-0.3c-0.2-0.1-0.5-0.2-1-0.2c-0.7,0-1.2,0-1.6,0v-1.1
		c2.7-0.3,4.6-0.8,5.8-1.5c0.2-0.1,0.4-0.2,0.5-0.2c0.1,0,0.2,0,0.2,0.1c0.1,0.1,0.1,0.2,0.1,0.3c0,0.1,0,0.2,0,0.4
		c-0.1,0.4-0.1,1.2-0.1,2.3c-0.1,2.1-0.1,3.5-0.1,4.2v3.7c0,1.5,0.1,2.6,0.3,3.3c0.2,0.6,0.6,1.1,1.2,1.5c0.6,0.4,1.3,0.6,2.2,0.6
		c0.6,0,1.2-0.1,1.8-0.3c0.6-0.2,1.1-0.5,1.6-0.9c0.3-0.3,0.7-0.7,1.1-1.2c0.3-0.4,0.5-0.6,0.5-0.8c0.1-0.2,0.1-0.5,0.2-0.9
		c0.1-1.1,0.1-2.2,0.1-3.3v-1.6c0-0.3,0-1.2-0.1-2.5c0-0.8-0.1-1.4-0.2-1.6c-0.1-0.1-0.1-0.2-0.2-0.3c-0.2-0.1-0.5-0.2-1-0.2
		c-0.7,0-1.2,0-1.6,0v-1.1c2.7-0.3,4.6-0.8,5.8-1.5c0.2-0.1,0.4-0.2,0.5-0.2c0.1,0,0.2,0,0.2,0.1c0.1,0.1,0.1,0.2,0.1,0.3
		c0,0.1,0,0.2,0,0.4c0,0.4-0.1,1.2-0.1,2.4c-0.1,2.1-0.1,3.5-0.1,4.2v2.6l0,2.6c0,1.5,0.1,2.4,0.1,2.7c0,0.6,0.1,1.1,0.2,1.4
		c0.1,0.1,0.1,0.2,0.2,0.3c0.1,0.1,0.2,0.1,0.4,0.2C328.3,49.1,329,49.1,330.3,49.1"/>
	<path class="st1" d="M332.2,50.2v-1.1l1.8,0c0.3,0,0.5-0.1,0.6-0.1c0.1-0.1,0.3-0.2,0.3-0.3c0.1-0.3,0.2-0.7,0.3-1.3
		c0-0.2,0-2,0.1-5.4v-2.3c0-1,0-2.1-0.1-3.3c0-0.7-0.1-1.2-0.2-1.3c-0.1-0.1-0.2-0.2-0.4-0.3c-0.2-0.1-1-0.1-2.4-0.1v-1.1
		c2.5-0.4,4.4-0.8,5.5-1.4c0.2-0.1,0.4-0.2,0.5-0.2s0.2,0,0.2,0.1c0,0.1,0.1,0.2,0.1,0.3c0,0.1,0,0.2,0,0.3c0,0.6-0.1,1.5-0.1,2.7
		l2.5-2.3c0.3-0.3,0.5-0.4,0.6-0.5c0.3-0.2,0.7-0.3,1.2-0.5c0.5-0.1,1.1-0.2,1.7-0.2c1.2,0,2.3,0.3,3.2,0.9c0.9,0.6,1.7,1.5,2.2,2.6
		l2.1-1.9c0.5-0.4,0.8-0.7,1-0.8c0.3-0.2,0.8-0.4,1.4-0.5c0.6-0.2,1.2-0.2,1.8-0.2c1.4,0,2.6,0.4,3.6,1.1c1,0.8,1.6,1.6,1.9,2.6
		c0.2,0.6,0.3,2,0.3,4.2v2l0.1,2.6c0,1.5,0.1,2.4,0.1,2.7c0,0.6,0.1,1.1,0.2,1.4c0,0.1,0.1,0.2,0.2,0.3c0.1,0.1,0.3,0.1,0.5,0.2
		c0.1,0,0.8,0,2.1,0.1v1.1c-1.6-0.1-2.6-0.1-3.2-0.1c-0.5,0-1.7,0-3.3,0.1l0.2-5.2l0.1-2v-1.6c0-2.1-0.1-3.6-0.3-4.4
		c-0.2-0.8-0.7-1.4-1.3-1.9c-0.7-0.5-1.5-0.7-2.4-0.7c-1,0-2,0.3-2.8,0.9c-0.6,0.5-1,1-1.2,1.7c-0.2,0.6-0.3,1.9-0.3,3.7v1.3
		l0.1,2.6c0,1.5,0,2.4,0.1,2.7c0,0.6,0.1,1.1,0.2,1.4c0,0.1,0.1,0.2,0.2,0.3c0.1,0.1,0.2,0.1,0.4,0.2c0.1,0,0.8,0,2.1,0.1v1.1
		c-1.8-0.1-3.3-0.2-4.4-0.2c-0.9,0-2.5,0-4.9,0.2v-1.1l1.8,0c0.3,0,0.5-0.1,0.6-0.1c0.1-0.1,0.3-0.2,0.3-0.3
		c0.1-0.3,0.2-0.7,0.2-1.3c0-0.2,0-2,0.1-5.5v-1.5c0-1.6-0.1-2.8-0.4-3.6c-0.3-0.8-0.7-1.4-1.3-1.8c-0.6-0.4-1.4-0.7-2.3-0.7
		c-0.7,0-1.5,0.2-2.1,0.5c-0.7,0.3-1.2,0.7-1.5,1.2c-0.4,0.5-0.6,1-0.7,1.5c-0.1,0.9-0.2,1.9-0.2,3.2v1.2c0.1,3.3,0.1,5.1,0.1,5.3
		c0,0.6,0.1,1.1,0.2,1.4c0,0.1,0.1,0.2,0.2,0.3c0.1,0.1,0.3,0.1,0.5,0.2c0.1,0,0.8,0,2.1,0.1v1.1c-1.7-0.1-3.2-0.2-4.4-0.2
		C336,50,334.4,50.1,332.2,50.2"/>
	<path class="st1" d="M369.5,37.2l-1-0.3c0-0.3,0-0.7,0-1.2c0-0.5,0-1,0-1.3c1.6-1,2.9-1.8,3.9-2.1c0.8-0.3,1.6-0.4,2.6-0.4
		c1.4,0,2.6,0.3,3.6,0.8c1,0.5,1.7,1.3,2.2,2.3c0.3,0.7,0.5,1.7,0.5,2.9l-0.1,3.5v5.7c0,0.6,0,1,0.1,1.3c0.1,0.2,0.2,0.3,0.4,0.4
		c0.1,0.1,0.4,0.1,0.8,0.2l1.2,0.1v1.1c-1-0.1-1.9-0.1-2.7-0.1c-0.7,0-1.7,0-3,0.1l0.1-3.3c-2.5,1.9-4.1,3-4.5,3.3
		c-0.5,0.2-1.1,0.4-1.8,0.4c-1.5,0-2.7-0.4-3.5-1.2c-0.8-0.8-1.3-1.9-1.3-3.3c0-0.9,0.1-1.7,0.4-2.4c0.3-0.7,0.6-1.3,1.1-1.7
		c0.4-0.4,0.8-0.7,1.3-0.9c0.7-0.3,1.9-0.7,3.5-1.1c1.6-0.4,3.2-0.7,4.8-0.9c0-1.2-0.1-2.1-0.4-2.8c-0.3-0.7-0.8-1.2-1.5-1.6
		c-0.7-0.4-1.6-0.6-2.6-0.6c-0.7,0-1.4,0.1-1.9,0.3c-0.6,0.2-0.9,0.4-1,0.5l-0.3,0.7C369.9,36.2,369.7,36.8,369.5,37.2 M378.1,40.2
		c-1.6,0.3-3,0.6-4.2,0.9c-1.1,0.3-2,0.7-2.4,1.1c-0.3,0.2-0.5,0.5-0.7,1c-0.3,0.6-0.5,1.3-0.5,2.1c0,0.9,0.3,1.7,0.8,2.2
		c0.5,0.5,1.2,0.8,2.1,0.8c0.8,0,1.7-0.2,2.5-0.7c0.8-0.5,1.6-1.2,2.4-2.2V40.2z"/>
	<path class="st1" d="M385.3,50.2v-1.1l1.8,0c0.3,0,0.5-0.1,0.6-0.1c0.1-0.1,0.3-0.2,0.3-0.3c0.1-0.3,0.2-0.7,0.3-1.3
		c0-0.2,0-2,0.1-5.5v-2.3c0-1,0-2.1-0.1-3.3c0-0.7-0.1-1.2-0.2-1.3c-0.1-0.1-0.2-0.2-0.4-0.3c-0.2-0.1-1-0.1-2.4-0.1v-1.1
		c2.5-0.4,4.4-0.8,5.5-1.4c0.2-0.1,0.4-0.2,0.5-0.2c0.1,0,0.2,0,0.2,0.1c0,0.1,0.1,0.2,0.1,0.3c0,0.1,0,0.2,0,0.3
		c0,0.5-0.1,1.4-0.1,2.9l3.5-3c1-0.4,2-0.6,2.9-0.6c1,0,2,0.2,2.9,0.6c0.9,0.4,1.6,0.9,2,1.6c0.5,0.6,0.8,1.4,0.9,2.4
		c0.1,0.6,0.1,2.2,0.1,4.8v3.4c0,1.6,0,2.8,0.1,3.4c0.1,0.4,0.2,0.6,0.3,0.8c0.1,0.1,0.3,0.2,0.6,0.3l2,0.1v1.1
		c-1.2-0.1-2.2-0.1-3.1-0.1c-0.7,0-1.9,0-3.5,0.1c0.2-3.1,0.3-5.1,0.3-5.9v-3.2c0-2-0.1-3.3-0.2-3.9c-0.2-0.8-0.7-1.5-1.4-2
		c-0.8-0.5-1.7-0.8-2.7-0.8c-0.9,0-1.8,0.2-2.6,0.7c-0.8,0.4-1.3,1-1.7,1.6c-0.3,0.6-0.5,1.6-0.5,3v2.3c0.1,3.3,0.1,5.1,0.1,5.3
		c0,0.6,0.1,1.1,0.2,1.4c0.1,0.1,0.1,0.2,0.2,0.3c0.1,0.1,0.3,0.1,0.5,0.2c0.1,0,0.8,0,2.1,0.1v1.1c-1.5-0.1-2.9-0.1-4.1-0.1
		C389.4,50.1,387.7,50.1,385.3,50.2"/>
	<path class="st1" d="M418.4,50.2V49c1.3,0,2.2-0.1,2.6-0.3c0.2-0.1,0.3-0.2,0.4-0.4c0.1-0.3,0.2-0.9,0.3-2c0.1-1.7,0.1-3.1,0.1-4.3
		v-9.7c0-1.7,0-3.4-0.1-5c0-1.2-0.1-1.9-0.3-2.1c-0.1-0.2-0.4-0.4-0.7-0.5c-0.3-0.1-1.2-0.2-2.7-0.2v-1.2l5.3,0.1l5.7-0.1
		c2.7,0,4.7-0.1,5.9-0.1c1.2,0,2.4,0.1,3.5,0.2c-0.2,0.7-0.3,1.3-0.4,1.9c0,0.1-0.1,1.4-0.3,3.9h-1.2c0-1.3-0.1-2.5-0.2-3.5
		c-0.7-0.3-1.4-0.5-2.3-0.6c-1.4-0.2-2.8-0.3-4.2-0.3c-0.3,0-1,0-2,0.1c-1,0.1-1.8,0.1-2.2,0.1c0,1.4-0.1,2.7-0.1,3.9l-0.1,6.4
		c1.5,0.1,2.8,0.1,4,0.1c1.5,0,2.8-0.1,3.8-0.2c0.4-0.1,0.7-0.2,0.8-0.3c0.1-0.2,0.2-0.7,0.3-1.6l0.1-1.3h1.1v0.4l-0.1,3.9l0.1,4.4
		h-1.3l-0.1-1.3c0-0.9-0.1-1.5-0.3-1.7c-0.1-0.2-0.4-0.4-0.8-0.5c-0.7-0.2-2.1-0.2-4.1-0.2c-0.8,0-2,0-3.6,0.1
		c-0.1,1.3-0.1,3.1-0.1,5.6c0,2.3,0,4.1,0.1,5.3c1.8,0.1,3.8,0.2,6,0.2c1.6,0,2.7-0.1,3.4-0.2c0.7-0.1,1.3-0.3,1.9-0.5
		c0.1-0.4,0.3-0.9,0.4-1.6c0.3-1.1,0.5-2,0.5-2.5h1.2c-0.3,2.6-0.5,4.7-0.5,6.4c-1.1,0.2-2.4,0.2-3.9,0.2L423.3,50
		C423.2,50,421.5,50.1,418.4,50.2"/>
	<path class="st1" d="M456.9,48l-0.7,1.3c-0.9,0.5-1.7,0.8-2.6,1c-0.8,0.2-1.8,0.3-2.9,0.3c-2.6,0-4.7-0.8-6.3-2.4
		c-1.6-1.6-2.3-3.8-2.3-6.6c0-1.5,0.2-2.8,0.6-3.9c0.4-1.1,0.9-1.9,1.5-2.5c0.4-0.4,1.2-1,2.3-1.6c1.2-0.7,2-1.1,2.4-1.3
		c0.8-0.4,1.9-0.5,3-0.5c1.1,0,2.1,0.1,3,0.4c0.6,0.2,1.1,0.4,1.7,0.8c-0.2,1-0.3,1.7-0.3,2.2c-0.1,0.5-0.1,1.4-0.2,2.7h-1.1
		c-0.1-1.2-0.1-2-0.2-2.3c0-0.2-0.2-0.4-0.3-0.5c-0.4-0.4-1-0.7-1.7-0.9c-0.7-0.3-1.5-0.4-2.3-0.4c-1,0-2,0.2-2.7,0.7
		c-0.8,0.4-1.4,1.1-1.8,2.1c-0.4,0.9-0.6,2.1-0.6,3.5c0,1.7,0.3,3.3,0.9,4.7c0.6,1.4,1.4,2.4,2.4,3c1,0.6,2.2,1,3.5,1
		c0.6,0,1.3-0.1,1.9-0.2c0.6-0.2,1.4-0.5,2.3-0.9L456.9,48"/>
	<path class="st1" d="M459.2,41.5c0-2.8,0.9-5.1,2.7-6.9c1.8-1.8,4.1-2.7,6.8-2.7c2.6,0,4.8,0.8,6.4,2.5c1.6,1.7,2.5,3.8,2.5,6.5
		c0,1.8-0.4,3.5-1.3,5.1c-0.8,1.5-2,2.7-3.6,3.6c-1.5,0.9-3.3,1.3-5.1,1.3c-1.4,0-2.7-0.2-3.7-0.7c-1-0.5-1.8-1.1-2.4-1.9
		c-0.6-0.7-1.1-1.5-1.4-2.3C459.5,44.5,459.2,43,459.2,41.5 M462.7,40.1c0,1.6,0.3,3.1,0.8,4.7c0.5,1.6,1.2,2.8,2.2,3.5
		c1,0.7,2,1.1,3.2,1.1c1.4,0,2.7-0.6,3.6-1.7s1.5-3,1.5-5.4c0-2-0.3-3.7-0.9-5.2c-0.6-1.5-1.3-2.5-2.2-3.1c-0.9-0.6-1.9-0.9-3-0.9
		c-1.5,0-2.8,0.6-3.7,1.7C463.2,35.9,462.7,37.7,462.7,40.1z"/>
	<path class="st1" d="M480,50.2v-1.1l1.8,0c0.3,0,0.5-0.1,0.6-0.1c0.1-0.1,0.3-0.2,0.3-0.3c0.1-0.3,0.2-0.7,0.2-1.3
		c0-0.2,0.1-2,0.1-5.4V34c0-2.1,0-4.3-0.1-6.5c-0.1-1.5-0.1-2.4-0.2-2.5c-0.1-0.1-0.2-0.2-0.3-0.3c-0.2-0.1-1-0.1-2.6-0.1v-1.1
		c2.8-0.4,4.8-0.8,5.9-1.3c0.2-0.1,0.3-0.1,0.4-0.1c0.1,0,0.2,0,0.2,0.1c0,0.1,0.1,0.1,0.1,0.2c0,0.1,0,0.2,0,0.4l0,0.6
		c-0.1,2.3-0.1,4.2-0.1,5.8l0,3v9.8c0.1,3.3,0.1,5.1,0.1,5.3c0,0.6,0.1,1.1,0.2,1.4c0,0.1,0.1,0.2,0.2,0.3c0.1,0.1,0.2,0.1,0.5,0.2
		c0.1,0,0.8,0,2.1,0.1v1.1c-1.7-0.1-3.2-0.2-4.5-0.2C483.6,50,482,50.1,480,50.2"/>
	<path class="st1" d="M491.6,41.5c0-2.8,0.9-5.1,2.7-6.9c1.8-1.8,4.1-2.7,6.8-2.7c2.6,0,4.8,0.8,6.4,2.5c1.6,1.7,2.5,3.8,2.5,6.5
		c0,1.8-0.4,3.5-1.3,5.1c-0.8,1.5-2,2.7-3.6,3.6c-1.5,0.9-3.3,1.3-5.1,1.3c-1.4,0-2.7-0.2-3.7-0.7c-1-0.5-1.8-1.1-2.4-1.9
		c-0.6-0.7-1.1-1.5-1.4-2.3C491.9,44.5,491.6,43,491.6,41.5 M495.2,40.1c0,1.6,0.3,3.1,0.8,4.7c0.5,1.6,1.2,2.8,2.2,3.5
		c1,0.7,2,1.1,3.2,1.1c1.4,0,2.7-0.6,3.6-1.7c1-1.2,1.5-3,1.5-5.4c0-2-0.3-3.7-0.9-5.2c-0.6-1.5-1.3-2.5-2.2-3.1
		c-0.9-0.6-1.9-0.9-3-0.9c-1.5,0-2.8,0.6-3.7,1.7C495.6,35.9,495.2,37.7,495.2,40.1z"/>
	<path class="st1" d="M532.2,33.4l0.1,0.4c-0.5,0.7-0.8,1.3-1,1.5h-3.5c0.3,0.7,0.4,1.4,0.4,2.1c0,1-0.2,1.9-0.7,2.8
		c-0.5,0.9-1.2,1.7-2.2,2.4c-0.9,0.7-2,1.1-3,1.3c-0.7,0.2-1.6,0.2-2.8,0.2c-0.8,0.7-1.3,1.2-1.5,1.5c-0.1,0.2-0.2,0.5-0.2,0.7
		c0,0.3,0.1,0.6,0.3,0.8c0.2,0.2,0.5,0.4,0.8,0.5c0.6,0.2,1.6,0.2,3,0.2l4-0.1c1.4,0,2.5,0.2,3.2,0.6c0.7,0.4,1.3,0.9,1.6,1.7
		c0.3,0.8,0.5,1.6,0.5,2.6c0,1.3-0.4,2.6-1.3,4c-0.8,1.3-2.1,2.4-3.8,3.2c-1.7,0.8-3.5,1.2-5.6,1.2c-1.7,0-3.2-0.3-4.4-0.8
		c-1.2-0.5-2.1-1.3-2.7-2.2c-0.6-0.9-0.9-1.9-0.9-2.9c0-0.6,0.1-1.1,0.3-1.6c0.2-0.5,0.5-1,0.9-1.6c1.5-0.7,2.6-1.3,3.3-1.9
		c-1-0.3-1.7-0.7-2-1c-0.3-0.3-0.4-0.6-0.4-0.9c0-0.3,0.2-0.9,0.6-2c0.6-0.5,1.6-1.3,2.9-2.2c-1.1-0.3-2-0.7-2.6-1.1
		c-0.6-0.4-1.1-1-1.4-1.7c-0.3-0.7-0.5-1.5-0.5-2.4c0-1.3,0.3-2.4,1-3.5c0.6-1,1.7-1.8,3.3-2.5c1.5-0.6,3-1,4.3-1
		c0.8,0,1.7,0.1,2.4,0.4c0.8,0.3,1.5,0.7,2.2,1.3C529.1,33.5,530.9,33.4,532.2,33.4 M522.4,50.4c-1.9,0-3,0-3.5,0.1
		c-0.2,0-0.5,0.2-0.8,0.4c-1,0.7-1.5,1.1-1.6,1.2c-0.1,0.1-0.3,0.4-0.4,0.8c-0.3,0.7-0.4,1.4-0.4,2.1c0,1.3,0.5,2.5,1.5,3.4
		c1,0.9,2.4,1.4,4.2,1.4c1.3,0,2.5-0.3,3.6-0.8c1.1-0.5,1.9-1.3,2.5-2.2c0.6-0.9,0.8-1.9,0.8-2.8c0-0.8-0.2-1.4-0.4-1.8
		c-0.2-0.4-0.5-0.7-0.7-1c-0.3-0.2-0.7-0.4-1.2-0.6C525.7,50.4,524.5,50.4,522.4,50.4z M516.9,37.7c0,0.9,0.2,1.8,0.5,2.6
		c0.3,0.8,0.8,1.5,1.5,1.9c0.6,0.4,1.4,0.6,2.2,0.6c1.1,0,2-0.4,2.8-1.1c0.8-0.7,1.2-1.8,1.2-3.4c0-1.6-0.4-2.9-1.2-3.8
		c-0.8-0.9-1.8-1.4-3-1.4c-1.2,0-2.2,0.4-2.9,1.2C517.3,35.1,516.9,36.2,516.9,37.7z"/>
	<path class="st1" d="M533.8,60.3l1-2.9h0.4c0.2,0.2,0.4,0.4,0.6,0.5c0.2,0.1,0.3,0.2,0.5,0.3c0.2,0.1,0.5,0.1,0.9,0.1
		c0.4,0,0.8-0.1,1.1-0.3c0.4-0.2,0.7-0.4,1-0.8c0.3-0.4,0.7-1,1.1-1.9c0.7-1.4,1.3-2.7,1.8-4.1c-0.4-1.1-0.9-2.4-1.4-3.8l-3-7.5
		c-0.9-2.2-1.6-3.9-2.2-5.1c-0.2-0.5-0.5-0.8-0.7-0.9c-0.3-0.2-0.8-0.3-1.7-0.4v-1.1c1.5,0.1,3.1,0.1,4.6,0.1c1.5,0,2.9,0,4.2-0.1
		v1.1c-1.3,0.1-2,0.2-2.2,0.2c-0.3,0.1-0.5,0.4-0.5,0.7c0,0.2,0.1,0.6,0.3,1.3c0.5,1.6,0.9,2.9,1.4,4l1.2,3c0.7,1.8,1.3,3.2,1.8,4.3
		l1-2.2c0.4-0.9,1.1-2.6,2-5c1-2.5,1.5-4,1.7-4.6c0.1-0.2,0.1-0.4,0.1-0.5c0-0.2-0.1-0.4-0.3-0.6c-0.2-0.1-0.9-0.3-2.3-0.4v-1.2
		c1.4,0.1,2.7,0.1,3.8,0.1c1.1,0,2.2,0,3.3-0.1l-0.2,1.2c-0.6,0-1.1,0.2-1.5,0.4c-0.3,0.3-0.9,1.1-1.6,2.5c-0.7,1.4-2,4.3-3.9,8.5
		L542,55.3c-0.7,1.7-1.3,2.8-1.8,3.5c-0.5,0.7-1.1,1.2-1.8,1.6c-0.7,0.4-1.5,0.5-2.3,0.5c-0.4,0-0.8,0-1.1-0.1
		C534.6,60.7,534.2,60.6,533.8,60.3"/>
	<g>
		<path class="st2" d="M27.2,55.1c2.5,2,5.3,3.7,8.2,5l0.3,0.1l0.3-0.1c2.9-1.3,5.6-3,8.2-5c5.4-4.3,8.3-9.2,8.3-14.2V18.2H18.9
			v22.3C18.9,45.8,21.7,50.8,27.2,55.1 M34.9,48.2c-0.2-0.1-0.4-0.1-0.6-0.1c-0.8,0-1.4,0.1-2.1,0.1c-0.7,0.1-1.3,0.1-2.3,0.1
			c-0.4,0-0.9,0-1.2,0V37.7h1.7c0.5,0,1.1-0.1,1.8-0.1l1.2-0.2c0.4-0.1,0.9-0.1,1.3,0l0.2,0.1L34.9,48.2L34.9,48.2z M50.9,41
			c0,9.3-11.3,15.6-14.6,17.3v-8.5l0.1-0.2c0.1-0.2,0.3-0.3,0.6-0.3c0.8,0,1.3,0,2,0.1c0.7,0.1,1.3,0.2,2.4,0.2c1,0,1.8,0,1.8,0h0.6
			v-3.2h1.3v-1.7h-1.3v-3.1h1.3v-1.7h-1.3v-3.4h-2.8c-0.5,0-1-0.1-1.7-0.1L38,36.2c-0.6-0.1-1.2,0-1.7,0.1V33h14.6V41z M36.3,48.2
			V37.5c0.1,0,0.2-0.1,0.3-0.1c0.5-0.1,0.9-0.1,1.4,0l1.2,0.1c0.7,0.1,1.3,0.1,1.8,0.1h1.7v10.7c-0.3,0-0.7,0-1.2,0
			c-1,0-1.6-0.1-2.3-0.1c-0.7-0.1-1.4-0.1-2.1-0.1C36.8,48,36.5,48.1,36.3,48.2z M20.4,19.8h30.4v11.5H20.4V19.8z M20.4,33h14.5v3.2
			c-0.5-0.1-1.1-0.1-1.6-0.1l-1.2,0.1c-0.6,0.1-1.2,0.1-1.7,0.1h-2.8v3.1h-1.4v1.7h1.4v3.1h-1.4V46h1.4v3.5h0.6c0,0,0.8,0,1.8,0
			c1,0,1.7-0.1,2.4-0.1c0.6-0.1,1.2-0.1,2-0.1c0.2,0,0.5,0.1,0.6,0.3l0.1,0.1v8.5c-3.5-1.8-14.5-8-14.5-17.6V33z"/>
		<path class="st2" d="M33.1,21h-8.5v0.6c0,1.9,0,5.1,0,5.2c0.1,0.8,0.6,1.4,1.3,1.8c1,0.7,2.6,1.6,2.6,1.6l0.3,0.2l0.3-0.2
			c0.1,0,1.7-1,2.8-1.7c0.7-0.3,1.2-1,1.2-1.8c0-0.1,0-2.9,0-5.2L33.1,21L33.1,21 M25.8,22.2h6.1c0,0.5,0,1,0,1.6h-6.2
			C25.8,23.3,25.8,22.7,25.8,22.2z M31.9,26.8c-0.1,0.4-0.4,0.7-0.7,0.8c-0.7,0.5-1.8,1.1-2.4,1.4c-0.5-0.3-1.5-1-2.3-1.4
			c-0.4-0.2-0.6-0.5-0.8-0.9c0-0.1,0-0.8,0-1.7h6.1C31.9,25.9,31.9,26.7,31.9,26.8z"/>
		<path class="st2" d="M47.6,20.7h-8.7v0.6c0,2.4,0,5.2,0,5.3c0.1,0.8,0.6,1.5,1.3,1.8c1.1,0.7,2.6,1.7,2.7,1.7l0.3,0.2l0.3-0.2
			c0.1,0,1.8-1,2.9-1.7c0.7-0.3,1.2-1,1.3-1.8c0-0.1,0-3,0-5.3L47.6,20.7L47.6,20.7 M46.4,26.7c-0.1,0.4-0.4,0.7-0.7,0.9
			c-0.8,0.5-1.9,1.2-2.4,1.5c-0.5-0.3-1.6-1-2.3-1.5c-0.4-0.2-0.6-0.5-0.8-0.9c0,0,0-0.1,0-0.3l3-2.2l3.3,2.2
			C46.4,26.5,46.4,26.6,46.4,26.7z M43.1,22.6l-3,2.2V22h6.3c0,1,0,2,0,2.9L43.1,22.6z"/>
		<path class="st2" d="M37.8,39.9l0.6,0.1c0.4,0,0.7,0.1,1,0.1l1.8,0v-1.2l-1.7,0c-0.3,0-0.6,0-1-0.1l-0.6-0.1c-0.1,0-0.3,0-0.4,0
			l0.1,1.2H37.8L37.8,39.9"/>
		<path class="st2" d="M39.4,42.2c-0.2,0-0.5,0-0.9-0.1L37.9,42c-0.1,0-0.3,0-0.4,0v1.2h0.3l0.6,0.1c0.4,0,0.7,0.1,1,0.1h1.8v-1.2
			h-0.5L39.4,42.2"/>
		<path class="st2" d="M39.4,45.7c-0.3,0-0.5,0-0.9-0.1l-0.6-0.1c-0.1,0-0.3,0-0.4,0v1.2h0.3l0.6,0.1c0.4,0,0.7,0.1,1,0.1h1.8v-1.2
			L39.4,45.7L39.4,45.7"/>
		<path class="st2" d="M31.9,40c0.3,0,0.6,0,1-0.1l0.5-0.1h0.3v-1.2h-0.4l-0.6,0.1c-0.3,0-0.6,0.1-0.9,0.1H30V40L31.9,40"/>
		<path class="st2" d="M32.8,42.1c-0.3,0-0.7,0.1-1,0.1h-1.8v1.2h1.8c0.3,0,0.6,0,1-0.1l0.6-0.1h0.3l0.1-1.2c-0.1,0-0.3,0-0.4,0
			L32.8,42.1"/>
		<path class="st2" d="M32.8,45.5c-0.3,0-0.6,0.1-1,0.1h-1.7v1.2h1.8c0.3,0,0.6,0,1-0.1l0.5-0.1h0.3v-1.2h-0.3L32.8,45.5"/>
		<path class="st2" d="M5.4,36.2c1.5,0,2.4-1,2.5-2.7c0-0.4,0-0.8-0.1-1.1v-0.1H6.6l0.1,0.2c0.1,0.3,0.1,0.6,0.1,1
			c0,0.8-0.7,1.4-1.4,1.4c-0.1,0-0.1,0-0.2,0c-0.8,0-1.4-0.6-1.5-1.4c0,0,0-0.1,0-0.1c0-0.3,0.1-0.7,0.3-1l0.1-0.2l-1.2-0.2
			l-0.1,0.1c-0.2,0.4-0.3,0.7-0.3,1.1c-0.2,1.4,0.7,2.7,2.1,3c0.1,0,0.3,0,0.5,0L5.4,36.2L5.4,36.2"/>
		<path class="st2" d="M5.6,30.3c0.3,0.1,0.6,0.1,1,0.1c1.1,0,2.1-0.7,2.3-1.8C9,27.9,9,27.2,8.7,26.6c-0.4-0.6-1-1.1-1.7-1.3
			c-0.3-0.1-0.6-0.1-1-0.1c-1.1,0-2.1,0.7-2.3,1.8c-0.4,1.3,0.2,2.6,1.4,3.1C5.3,30.2,5.4,30.2,5.6,30.3 M4.8,27.4
			c0.1-0.5,0.6-0.8,1.2-0.8c0.2,0,0.4,0,0.6,0.1C7,26.8,7.4,27,7.7,27.4c0.1,0.2,0.2,0.5,0.1,0.8C7.6,28.7,7.1,29,6.6,29
			c-0.2,0-0.5,0-0.7-0.1C5.2,28.8,4.7,28.2,4.8,27.4C4.8,27.4,4.8,27.4,4.8,27.4L4.8,27.4z"/>
		<path class="st2" d="M10.7,23.5l-1.8-1L9,22.4c0.1-0.2,0.3-0.4,0.5-0.3c0,0,0,0,0,0l1.7,0.2l0.7-1.3l-2.3-0.2c-0.1,0-0.3,0-0.4,0
			c0-0.5-0.2-0.9-0.6-1.2c-0.2-0.1-0.5-0.2-0.7-0.2c-0.8,0-1.3,0.9-1.7,1.6l-0.6,1.1l4.5,2.5L10.7,23.5 M8,21.9L8,22l-0.8-0.4
			l0.1-0.1C7.4,21,7.6,20.7,8,20.9c0.1,0,0.2,0.1,0.2,0.3C8.2,21.4,8.2,21.7,8,21.9z"/>
		<polyline class="st2" points="13.6,18.9 11.2,17 14.5,17.7 15.5,16.6 11.5,13.3 10.7,14.3 13,16.2 9.7,15.4 8.8,16.6 12.8,19.9 
			13.6,18.9 		"/>
		<polyline class="st2" points="19.3,13.3 18.6,12.4 17.2,13.6 16.5,12.8 17.8,11.7 17.1,10.9 15.8,11.9 15.3,11.3 16.7,10.1 
			16,9.2 13.6,11.3 16.8,15.3 19.3,13.3 		"/>
		<polyline class="st2" points="23.6,10.7 23,9.7 21.4,10.6 19.4,7 18.3,7.7 20.8,12.3 23.6,10.7 		"/>
		<polyline class="st2" points="27.9,9 27.5,8 25.8,8.6 24.4,4.7 23.2,5.2 24.9,10.1 27.9,9 		"/>
		<path class="st2" d="M33.1,8.2h0.3c0.6,0,1.1-0.3,1.6-0.7c0.3-0.4,0.5-1,0.4-1.5l-0.3-3.3l-1.3,0.1l0.2,3c0.1,1.1-0.3,1.2-0.7,1.3
			h-0.1c-0.3,0-0.7-0.1-0.8-1.1l-0.2-3l-1.3,0.1l0.3,3.3c0,1,0.8,1.8,1.8,1.8C33,8.2,33,8.2,33.1,8.2"/>
		<polyline class="st2" points="39,5 40.1,8.3 41.5,8.5 42.2,3.3 41,3.1 40.6,6.2 39.5,2.9 38,2.7 37.3,7.9 38.6,8.1 39,5 		"/>
		<polyline class="st2" points="46.1,4.4 44.8,4 43.3,9 44.6,9.4 46.1,4.4 		"/>
		<polyline class="st2" points="52.5,7.4 51.4,6.8 48.9,9.3 49.4,5.8 48.2,5.1 47.4,10.6 48.7,11.2 52.5,7.4 		"/>
		<polyline class="st2" points="53.8,14.8 54.5,14 53.1,12.8 53.7,12 55,13.1 55.7,12.2 54.4,11.1 54.9,10.4 56.3,11.6 57,10.7 
			54.5,8.7 51.4,12.9 53.8,14.8 		"/>
		<path class="st2" d="M56,17l1.5-1.4l0.1,0.1c0.2,0.2,0.2,0.4,0,0.6c0,0,0,0,0,0l-0.8,1.5l1,1.1l1-2.1c0.1-0.1,0.1-0.3,0.1-0.4
			c0.5,0.2,1,0.1,1.4-0.2c1.1-1,0.2-2-0.4-2.8l-0.8-1L55.1,16L56,17 M59,14.3l0.1,0.1c0.2,0.2,0.3,0.4,0.4,0.7
			c0,0.1-0.1,0.2-0.2,0.3c-0.1,0.1-0.2,0.1-0.3,0.1c-0.3-0.1-0.5-0.2-0.6-0.4l-0.1-0.1L59,14.3z"/>
		<path class="st2" d="M60.8,21.2c-0.3,0.1-0.6-0.1-0.7-0.3c-0.2-0.3-0.3-0.6-0.3-1v-0.3l-1.2,0.6l0.1,0.3c0.1,0.4,0.2,0.8,0.4,1.1
			c0.3,0.6,0.9,1.1,1.6,1.1c0.3,0,0.6-0.1,0.8-0.3c0.7-0.4,0.9-1.3,0.7-2c-0.1-0.3-0.1-0.6,0.1-0.8c0.1,0,0.2-0.1,0.3-0.1
			c0.2,0,0.4,0.1,0.4,0.3c0.2,0.3,0.2,0.6,0.3,0.9v0.2l1.1-0.5v-0.1c-0.1-0.4-0.2-0.8-0.4-1.1c-0.4-0.8-1.3-1.2-2.2-0.8
			c-0.1,0-0.1,0.1-0.2,0.1c-0.7,0.4-0.9,1.3-0.7,2C61,20.8,61,21.1,60.8,21.2"/>
		<polyline class="st2" points="60.9,24.7 65.6,22.7 66.1,24 61.4,25.9 60.9,24.7 		"/>
		<polyline class="st2" points="66.2,27.6 62.2,28.6 62.5,29.9 66.5,28.9 66.8,30.3 67.9,30 66.9,26 65.8,26.3 66.2,27.6 		"/>
		<polyline class="st2" points="63.1,34 63.2,35.3 65.2,35.2 68.5,36.9 68.4,35.4 66.5,34.5 68.3,33.4 68.2,31.8 65.2,33.9 63.1,34 
					"/>
		<polyline class="st2" points="6.4,45.9 7.5,45.6 7,44 7.8,43.8 8.3,45.5 9.3,45.1 8.5,42.2 3.6,43.7 3.9,44.9 5.9,44.3 6.4,45.9 
					"/>
		<path class="st2" d="M11,50.3c0.2-0.6,0.1-1.3-0.2-1.9c-0.4-0.9-1.2-1.5-2.1-1.5c-0.5,0-0.9,0.1-1.4,0.3c-0.7,0.3-1.2,0.9-1.5,1.5
			c-0.2,0.6-0.1,1.3,0.2,1.9c0.4,0.9,1.2,1.4,2.1,1.5c0.5,0,1-0.1,1.4-0.3C10.2,51.5,10.7,50.9,11,50.3 M8.9,50.5
			c-0.3,0.2-0.6,0.2-1,0.3c-0.6,0-1.1-0.5-1.1-1.1c0-0.1,0-0.2,0-0.3c0.2-0.4,0.5-0.8,1-1c0.3-0.1,0.6-0.2,0.9-0.2
			c0.6,0,1.1,0.5,1.1,1.1c0,0.1,0,0.2,0,0.3C9.7,50,9.3,50.3,8.9,50.5z"/>
		<path class="st2" d="M14.5,54.3l-2.3,1.9c-0.6,0.5-1.1,0.6-1.4,0.1c-0.1-0.1-0.2-0.3-0.2-0.6c0.1-0.3,0.3-0.6,0.6-0.8l2.3-1.9
			l-0.8-1l-2.5,2c-0.5,0.3-0.8,0.8-0.8,1.4c0,0.6,0.2,1.1,0.6,1.5c0.4,0.6,1,0.9,1.6,1c0.5,0,0.9-0.2,1.3-0.5l2.5-2L14.5,54.3"/>
		<polyline class="st2" points="18.9,58.6 17,60.9 17.7,57.6 16.6,56.6 13.3,60.7 14.3,61.5 16.2,59.1 15.5,62.5 16.6,63.4 
			19.9,59.4 18.9,58.6 		"/>
		<path class="st2" d="M22.7,61l-1.3-0.7L19.1,65l1.3,0.7c0.5,0.3,1.1,0.5,1.7,0.5c0.9,0,1.7-0.6,2.1-1.5C25,63.1,24.5,61.9,22.7,61
			 M22.9,64.1c-0.3,0.7-1.1,1-1.8,0.7c0,0-0.1,0-0.1-0.1l-0.3-0.2L22,62l0.4,0.2c0.3,0.2,0.6,0.5,0.7,0.8
			C23.2,63.3,23.1,63.7,22.9,64.1z"/>
		<polyline class="st2" points="25.6,67.9 28.6,68.7 28.9,67.7 27.1,67.2 27.4,66.2 29,66.6 29.3,65.6 27.7,65.1 27.9,64.3 
			29.7,64.8 30,63.7 26.9,62.9 25.6,67.9 		"/>
		<path class="st2" d="M33.2,64.1L31.7,64l-0.3,5.2l1.5,0.1h0.3c1.7,0,2.6-0.8,2.7-2.4c0.1-0.7-0.1-1.4-0.5-1.9
			C34.8,64.3,34,64,33.2,64.1 M33.2,68.2h-0.4l0.2-3h0.4c0.8,0.1,1.4,0.8,1.4,1.6C34.6,67.6,33.9,68.3,33.2,68.2L33.2,68.2z"/>
		<path class="st2" d="M40.5,63.7l-0.9,5.5l1.3-0.3l0.2-1.2l1.7-0.4l0.6,1l1.4-0.3l-3-4.7L40.5,63.7 M41.3,66.6l0.2-1.4l0.7,1.2
			L41.3,66.6z"/>
		<polyline class="st2" points="45.4,66.4 46.6,66 47.1,67.2 45.8,67.7 45.4,66.4 		"/>
		<path class="st2" d="M47.9,61.1l-1.3,0.7l2.5,4.6l1.3-0.7c1.7-1,2.2-2.2,1.4-3.7C50.9,60.5,49.6,60.2,47.9,61.1 M50,64.6l-0.3,0.2
			l-1.4-2.6l0.3-0.2c0.2-0.1,0.4-0.2,0.7-0.2c0.5,0,1,0.3,1.3,0.8C50.9,63.3,50.7,64.2,50,64.6C50,64.6,50,64.6,50,64.6z"/>
		<polyline class="st2" points="52.7,62.8 53.8,62 54.5,63.1 53.4,63.9 52.7,62.8 		"/>
		<polyline class="st2" points="54.7,56.1 54.5,58.1 55.7,58.3 55.7,57.4 58.2,60 59.1,59 55.5,55.3 54.7,56.1 		"/>
		<path class="st2" d="M61.7,53.4c-0.4-0.3-1-0.4-1.4-0.2c0-0.5-0.2-0.9-0.6-1.2c-0.6-0.5-1.5-0.2-2.1,0.6c-0.6,0.6-0.6,1.5,0,2.1
			c0.1,0.1,0.1,0.1,0.2,0.1c0.4,0.3,0.8,0.3,1.3,0.2c-0.1,0.5,0.2,1,0.5,1.3c0.3,0.2,0.6,0.3,0.9,0.3c0.6-0.1,1.1-0.4,1.5-0.9
			c0.3-0.4,0.5-0.9,0.4-1.4C62.3,53.9,62.1,53.6,61.7,53.4 M59.3,53.7c-0.2,0.1-0.3,0.2-0.5,0.2c-0.1,0-0.1,0-0.2-0.1
			c-0.2-0.2-0.2-0.5,0-0.7l0,0c0.1-0.1,0.2-0.2,0.3-0.2c0.1,0,0.2,0,0.3,0.1C59.3,53.3,59.3,53.5,59.3,53.7L59.3,53.7z M61.1,55.1
			c-0.2,0.2-0.5,0.3-0.7,0.1c-0.2-0.2-0.3-0.5-0.2-0.7c0.2-0.2,0.6-0.3,0.9-0.1c0.1,0.1,0.2,0.2,0.2,0.3
			C61.2,54.9,61.1,55,61.1,55.1z"/>
		<path class="st2" d="M64.1,48.2c-0.7-0.4-1.6-0.2-2.1,0.5c0,0.1-0.1,0.1-0.1,0.2c-0.1,0.2-0.2,0.5-0.1,0.7
			c-0.4-0.3-0.5-0.8-0.4-1.2c0.1-0.2,0.3-0.5,0.5-0.6l0.2-0.2l-1-0.7L61,47.1c-0.3,0.3-0.5,0.6-0.6,0.9c-0.3,0.5-0.4,1-0.2,1.5
			c0.7,1.2,1.9,2.1,3.3,2.2c0.6,0,1.2-0.4,1.5-1c0.5-0.8,0.2-1.9-0.6-2.3C64.3,48.3,64.2,48.3,64.1,48.2 M64.1,50.2
			c-0.1,0.2-0.2,0.3-0.4,0.3c-0.1,0-0.3,0-0.4-0.1c-0.2-0.1-0.4-0.2-0.5-0.4c0-0.1,0-0.2,0-0.3c0.1-0.2,0.2-0.2,0.4-0.2
			c0.2,0,0.3,0,0.5,0.1c0.2,0.1,0.3,0.2,0.4,0.4C64.1,50,64.1,50.1,64.1,50.2L64.1,50.2z"/>
		<path class="st2" d="M65.9,43c-0.8-0.3-1.8,0.1-2.1,0.9c0,0.1-0.1,0.2-0.1,0.2c0,0.1,0,0.2-0.1,0.3l-0.7-0.2l0.5-1.8l-1-0.3
			l-0.9,3l2.9,1v-0.3c0-0.3,0-0.5,0.1-0.8c0.1-0.4,0.5-0.8,0.9-0.7c0,0,0,0,0,0c0.4,0.2,0.5,0.6,0.4,1c-0.1,0.3-0.3,0.6-0.5,0.8
			l-0.2,0.2l1.2,0.4l0.1-0.1c0.2-0.3,0.4-0.7,0.5-1.1c0.2-0.5,0.2-1.1-0.1-1.6C66.8,43.4,66.4,43.1,65.9,43"/>
		<path class="st2" d="M9.6,36c0,14.5,11.6,26.3,26,26.3s26-11.8,26-26.3S49.9,9.7,35.5,9.7C21.2,9.7,9.6,21.5,9.6,36 M35.5,10.6
			C49.4,10.6,60.6,22,60.6,36S49.4,61.4,35.5,61.4S10.5,50,10.5,36C10.5,22,21.7,10.6,35.5,10.6z"/>
		<path class="st2" d="M35.5,0C15.9,0,0,16.1,0,36s15.9,36,35.5,36C55.1,72,71,55.9,71,36C71,15.7,55.1,0,35.5,0 M35.5,71.1
			C16.4,71.1,0.9,55.4,0.9,36c0-19.4,15.5-35.1,34.6-35.1S70.1,16.6,70.1,36C70.1,55.4,54.6,71,35.5,71.1L35.5,71.1z"/>
	</g>
	<line class="st3" x1="89.9" y1="0" x2="89.9" y2="72"/>
</g>
</svg>
