<svg width="238" height="71" viewBox="0 0 238 71" fill="none" xmlns="http://www.w3.org/2000/svg">
<path d="M115.044 56.44C115.044 54.208 114.144 52.696 113.1 51.652C111.984 50.536 110.328 49.888 109.644 49.636C108.852 49.312 107.016 48.664 105.936 48.232C104.82 47.8 103.416 47.224 103.416 45.712C103.416 44.2 104.784 43.48 106.656 43.48C108.528 43.48 110.76 44.56 112.2 46L114.684 41.932C112.992 40.24 109.68 38.872 106.8 38.872C103.92 38.872 101.652 39.664 100.248 40.852C98.808 42.04 97.656 43.912 97.656 46.288C97.656 48.628 98.52 50.068 99.6 51.076C100.68 52.12 101.94 52.588 102.552 52.876C103.38 53.236 105.252 53.884 106.332 54.28C107.412 54.676 109.248 55.324 109.248 57.016C109.248 58.672 107.808 59.572 105.936 59.572C104.028 59.572 101.256 58.312 99.456 56.44L96.576 60.688C98.592 62.56 101.796 64.432 105.396 64.432C108.06 64.432 110.364 63.784 112.128 62.38C113.928 60.976 115.044 58.816 115.044 56.44Z" fill="white"/>
<path d="M131.487 57.916C131.487 57.916 129.687 59.644 126.987 59.644C124.287 59.644 122.523 57.88 122.523 55.072C122.523 52.264 124.467 50.572 126.915 50.572C129.399 50.572 130.983 51.76 131.487 52.156L132.747 47.8C132.747 47.8 130.695 45.928 126.159 45.928C121.299 45.928 116.727 49.24 116.727 55.18C116.727 61.084 121.227 64.396 126.087 64.396C130.803 64.396 132.675 62.416 132.855 62.272L131.487 57.916Z" fill="white"/>
<path d="M141.367 41.212C141.367 39.448 140.035 38.224 138.091 38.224C136.147 38.224 134.815 39.448 134.815 41.212C134.815 43.012 136.147 44.2 138.091 44.2C140.035 44.2 141.367 43.012 141.367 41.212ZM140.971 46.252H135.211V64H140.971V46.252Z" fill="white"/>
<path d="M162.266 54.604C162.266 49.42 158.63 45.928 153.374 45.928C148.118 45.928 143.798 49.276 143.798 55.144C143.798 61.012 147.794 64.396 153.266 64.396C158.774 64.396 161.114 61.948 161.69 61.516L159.422 58.528C158.414 59.212 156.398 60.22 154.094 60.22C151.754 60.22 149.81 59.068 149.558 56.512H162.194C162.194 56.512 162.266 55.468 162.266 54.604ZM149.594 53.236C149.666 51.544 150.89 49.672 153.266 49.672C155.678 49.672 156.866 51.616 156.902 53.236H149.594Z" fill="white"/>
<path d="M182.34 53.524C182.34 49.24 181.008 45.928 175.86 45.928C173.304 45.928 171.684 47.224 170.712 48.808H170.64L170.676 46.252H164.916V64H170.676V55.216C170.676 52.66 171.36 50.644 173.844 50.644C176.22 50.644 176.58 52.408 176.58 54.748V64H182.34V53.524Z" fill="white"/>
<path d="M199.761 57.916C199.761 57.916 197.961 59.644 195.261 59.644C192.561 59.644 190.797 57.88 190.797 55.072C190.797 52.264 192.741 50.572 195.189 50.572C197.673 50.572 199.257 51.76 199.761 52.156L201.021 47.8C201.021 47.8 198.969 45.928 194.433 45.928C189.573 45.928 185.001 49.24 185.001 55.18C185.001 61.084 189.501 64.396 194.361 64.396C199.077 64.396 200.949 62.416 201.129 62.272L199.761 57.916Z" fill="white"/>
<path d="M220.836 54.604C220.836 49.42 217.2 45.928 211.944 45.928C206.688 45.928 202.368 49.276 202.368 55.144C202.368 61.012 206.364 64.396 211.836 64.396C217.344 64.396 219.684 61.948 220.26 61.516L217.992 58.528C216.984 59.212 214.968 60.22 212.664 60.22C210.324 60.22 208.38 59.068 208.128 56.512H220.764C220.764 56.512 220.836 55.468 220.836 54.604ZM208.164 53.236C208.236 51.544 209.46 49.672 211.836 49.672C214.248 49.672 215.436 51.616 215.472 53.236H208.164Z" fill="white"/>
<path d="M237.022 58.528C237.022 56.656 236.158 55.504 235.582 54.928C234.97 54.352 234.07 53.884 233.278 53.596C232.522 53.308 231.982 53.128 230.758 52.768C229.534 52.408 228.166 51.976 228.166 51.04C228.166 50.104 228.922 49.744 230.29 49.744C231.73 49.744 233.746 50.68 234.754 51.472L236.626 48.088C235.618 47.26 233.53 45.892 229.822 45.892C226.114 45.892 223.09 48.016 223.09 51.472C223.09 54.64 225.286 55.756 226.114 56.116C226.942 56.476 227.95 56.764 228.634 56.944C229.282 57.16 231.874 57.736 231.874 58.888C231.874 60.04 230.866 60.4 229.426 60.4C227.986 60.4 225.61 59.464 224.17 58.24L222.01 61.66C224.026 63.568 226.834 64.396 229.498 64.396C231.874 64.396 233.638 63.856 234.934 62.848C236.23 61.804 237.022 60.364 237.022 58.528Z" fill="white"/>
<path d="M16.264 39.124H10.216L0.856018 64H6.90402L8.66802 58.996H17.524L19.288 64H25.624L16.264 39.124ZM10 54.46L13.096 45.532L16.192 54.46H10Z" fill="white"/>
<path d="M39.3648 46.252C39.3648 46.252 38.7528 45.928 37.5648 45.928C35.6568 45.928 34.1808 46.828 33.1728 48.772H33.1008L33.1368 46.252H27.3768V64H33.1368V56.116C33.1368 54.136 33.6048 52.984 34.0368 52.408C34.4688 51.832 35.4048 51.112 36.7008 51.112C37.7088 51.112 38.4648 51.364 38.7888 51.544H39.0408L39.3648 46.252Z" fill="white"/>
<path d="M51.8826 46.288H47.9586V41.464H42.1626V46.288H39.6426V50.644H42.1626V57.52C42.1626 60.22 42.5226 61.696 43.4226 62.74C44.3226 63.784 45.6906 64.396 47.7426 64.396C49.8306 64.396 51.4146 63.928 51.8466 63.82L51.5586 59.32C51.5586 59.32 50.7306 59.644 49.8306 59.644C49.0746 59.644 48.7146 59.5 48.4626 59.212C48.1746 58.888 47.9586 58.528 47.9586 57.016V50.644H51.8826V46.288Z" fill="white"/>
<path d="M67.737 58.528C67.737 56.656 66.873 55.504 66.297 54.928C65.685 54.352 64.785 53.884 63.993 53.596C63.237 53.308 62.697 53.128 61.473 52.768C60.249 52.408 58.881 51.976 58.881 51.04C58.881 50.104 59.637 49.744 61.005 49.744C62.445 49.744 64.461 50.68 65.469 51.472L67.341 48.088C66.333 47.26 64.245 45.892 60.537 45.892C56.829 45.892 53.805 48.016 53.805 51.472C53.805 54.64 56.001 55.756 56.829 56.116C57.657 56.476 58.665 56.764 59.349 56.944C59.997 57.16 62.589 57.736 62.589 58.888C62.589 60.04 61.581 60.4 60.141 60.4C58.701 60.4 56.325 59.464 54.885 58.24L52.725 61.66C54.741 63.568 57.549 64.396 60.213 64.396C62.589 64.396 64.353 63.856 65.649 62.848C66.945 61.804 67.737 60.364 67.737 58.528Z" fill="white"/>
<path d="M13.0793 8.29431H0V10.4615H5.24786V26.7559H7.85833V10.4615H13.0793V8.29431Z" fill="#FBFBFB"/>
<path d="M26.3194 19.1839C26.3194 16.1605 25.4313 13.806 21.7443 13.806C19.8874 13.806 18.488 14.796 17.8152 16.0535H17.7613V8.29431H15.2047V26.7559H17.7613V20.4682C17.7613 17.9264 18.7571 15.9197 21.0984 15.9197C23.4398 15.9197 23.7358 17.7391 23.7358 19.5585V26.7559H26.3194V19.1839Z" fill="#FBFBFB"/>
<path d="M41.4938 19.8796C41.4938 16.3211 38.991 13.806 35.4386 13.806C31.8862 13.806 28.9528 16.3746 28.9528 20.388C28.9528 24.4281 31.5632 27.0502 35.3579 27.0502C39.1794 27.0502 40.821 25.1773 40.9825 25.0435L39.906 23.5719C39.61 23.7592 38.076 25.0435 35.6808 25.0435C33.3125 25.0435 31.6978 23.5184 31.5633 21.0033H41.4131C41.4131 21.0033 41.4938 20.3612 41.4938 19.8796ZM31.5902 19.291C31.6709 17.7659 32.8012 15.6522 35.3579 15.6522C37.9414 15.6522 39.0179 17.8729 39.0448 19.291H31.5902Z" fill="#FBFBFB"/>
<path d="M63.7909 22.4482C62.5798 23.7592 60.696 24.6957 58.247 24.6957C54.264 24.6957 51.3306 21.8328 51.3306 17.4983C51.3306 13.1639 54.2371 10.301 58.247 10.301C60.8306 10.301 62.9028 11.6388 63.6294 12.5485L64.7328 10.4615C63.7102 9.47157 61.611 8.02676 58.1394 8.02676C52.8108 8.02676 48.6394 11.7993 48.6394 17.5518C48.6394 23.3043 52.73 27.0769 58.1394 27.0769C61.6648 27.0769 63.764 25.6321 64.9212 24.3478L63.7909 22.4482Z" fill="#FBFBFB"/>
<path d="M79.7302 20.4415C79.7302 16.5084 76.7699 13.806 72.9753 13.806C69.1538 13.806 66.1934 16.5084 66.1934 20.4415C66.1934 24.4013 69.1538 27.0502 72.9753 27.0502C76.7699 27.0502 79.7302 24.4013 79.7302 20.4415ZM77.1197 20.3612C77.1197 22.8763 75.5319 24.8562 72.9753 24.8562C70.3917 24.8562 68.8039 22.8763 68.8039 20.3612C68.8039 17.8729 70.3917 15.893 72.9753 15.893C75.5319 15.893 77.1197 17.8729 77.1197 20.3612Z" fill="#FBFBFB"/>
<path d="M85.1204 8.29431H82.5637V26.7559H85.1204V8.29431Z" fill="#FBFBFB"/>
<path d="M91.5068 8.29431H88.9501V26.7559H91.5068V8.29431Z" fill="#FBFBFB"/>
<path d="M106.882 19.8796C106.882 16.3211 104.379 13.806 100.827 13.806C97.2741 13.806 94.3407 16.3746 94.3407 20.388C94.3407 24.4281 96.9512 27.0502 100.746 27.0502C104.567 27.0502 106.209 25.1773 106.37 25.0435L105.294 23.5719C104.998 23.7592 103.464 25.0435 101.069 25.0435C98.7005 25.0435 97.0858 23.5184 96.9512 21.0033H106.801C106.801 21.0033 106.882 20.3612 106.882 19.8796ZM96.9781 19.291C97.0589 17.7659 98.1892 15.6522 100.746 15.6522C103.329 15.6522 104.406 17.8729 104.433 19.291H96.9781Z" fill="#FBFBFB"/>
<path d="M121.826 14.0468H119.269L119.296 16.0535H119.215C118.462 14.8763 116.982 13.806 114.748 13.806C111.465 13.806 108.585 16.1605 108.585 20.2007C108.585 24.2408 111.465 26.5953 114.748 26.5953C116.901 26.5953 118.354 25.6054 119.215 24.3211H119.269V24.9632C119.269 26.7023 118.812 27.9064 118.3 28.5217C117.789 29.1639 116.713 29.913 114.802 29.913C112.891 29.913 110.9 28.8963 110.227 28.3077L109.016 30.1003C109.393 30.3679 111.572 32 114.721 32C117.897 32 119.485 30.7157 120.427 29.5652C121.368 28.4415 121.826 26.8896 121.826 24.0803V14.0468ZM119.35 20.2007C119.35 22.6087 117.924 24.5084 115.286 24.5084C112.676 24.5084 111.223 22.6087 111.223 20.2007C111.223 17.7926 112.676 15.8662 115.286 15.8662C117.924 15.8662 119.35 17.7926 119.35 20.2007Z" fill="#FBFBFB"/>
<path d="M137.079 19.8796C137.079 16.3211 134.576 13.806 131.024 13.806C127.471 13.806 124.538 16.3746 124.538 20.388C124.538 24.4281 127.148 27.0502 130.943 27.0502C134.765 27.0502 136.406 25.1773 136.568 25.0435L135.491 23.5719C135.195 23.7592 133.661 25.0435 131.266 25.0435C128.898 25.0435 127.283 23.5184 127.148 21.0033H136.998C136.998 21.0033 137.079 20.3612 137.079 19.8796ZM127.175 19.291C127.256 17.7659 128.386 15.6522 130.943 15.6522C133.527 15.6522 134.603 17.8729 134.63 19.291H127.175Z" fill="#FBFBFB"/>
<path d="M157.681 20.4415C157.681 16.5084 154.72 13.806 150.926 13.806C147.104 13.806 144.144 16.5084 144.144 20.4415C144.144 24.4013 147.104 27.0502 150.926 27.0502C154.72 27.0502 157.681 24.4013 157.681 20.4415ZM155.07 20.3612C155.07 22.8763 153.482 24.8562 150.926 24.8562C148.342 24.8562 146.754 22.8763 146.754 20.3612C146.754 17.8729 148.342 15.893 150.926 15.893C153.482 15.893 155.07 17.8729 155.07 20.3612Z" fill="#FBFBFB"/>
<path d="M167 8.29431C167 8.29431 166.273 8 164.793 8C163.313 8 162.29 8.69565 161.725 9.3913C161.187 10.0602 160.864 11.1304 160.864 12.7893V14.0736H159.034V16.1338H160.864V26.7559H163.421V16.1338H166.462V14.0736H163.421V12.6555C163.421 11.2107 163.69 9.95318 165.385 9.95318C166.112 9.95318 166.839 10.194 166.839 10.194L167 8.29431Z" fill="#FBFBFB"/>
<path d="M96.32 63.5837L90.5406 57.5835C91.9027 56.2215 94.6904 53.5459 95.2799 51.9146H89.8479C89.3034 53.097 88.8545 53.5459 87.3749 54.2337L84.0251 50.4421C86.4914 49.1169 88.8105 46.8714 88.8105 43.9265C88.8105 39.9877 85.3503 37.9999 81.301 37.9999C77.215 37.9999 73.4971 39.9877 73.4971 44.0738C73.4971 46.5401 74.8959 48.1966 76.1107 49.5587C72.8345 50.9575 70 53.203 70 56.8473C70 61.8904 74.1965 64.3199 78.9083 64.3199C82.2213 64.3199 84.4668 63.2524 87.0436 61.1542L89.5467 63.8782H96.32V63.5837ZM83.8042 44.1106C83.8042 45.7303 82.1109 46.7978 81.0065 47.4972L80.1599 46.577C79.755 46.0984 78.9451 45.2886 78.9451 44.1842C78.9451 42.7854 79.939 41.9387 81.4115 41.9387C82.8471 41.9387 83.8042 42.7118 83.8042 44.1106ZM83.8778 57.8044C82.9207 58.8719 81.1906 59.9394 79.3132 59.9394C77.399 59.9394 75.7425 58.651 75.7425 56.6632C75.7425 54.7122 77.2518 53.6815 78.4298 53.0189L79.166 52.614L83.8778 57.8044Z" fill="#FBFBFB"/>
</svg>
