<svg width="463" height="35" viewBox="0 0 463 35" fill="none" xmlns="http://www.w3.org/2000/svg">
<path d="M340.188 20.44C340.188 18.208 339.288 16.696 338.244 15.652C337.128 14.536 335.472 13.888 334.788 13.636C333.996 13.312 332.16 12.664 331.08 12.232C329.964 11.8 328.56 11.224 328.56 9.712C328.56 8.2 329.928 7.48 331.8 7.48C333.672 7.48 335.904 8.56 337.344 10L339.828 5.932C338.136 4.24 334.824 2.872 331.944 2.872C329.064 2.872 326.796 3.664 325.392 4.852C323.952 6.04 322.8 7.912 322.8 10.288C322.8 12.628 323.664 14.068 324.744 15.076C325.824 16.12 327.084 16.588 327.696 16.876C328.524 17.236 330.396 17.884 331.476 18.28C332.556 18.676 334.392 19.324 334.392 21.016C334.392 22.672 332.952 23.572 331.08 23.572C329.172 23.572 326.4 22.312 324.6 20.44L321.72 24.688C323.736 26.56 326.94 28.432 330.54 28.432C333.204 28.432 335.508 27.784 337.272 26.38C339.072 24.976 340.188 22.816 340.188 20.44Z" fill="#2C2C2C"/>
<path d="M356.631 21.916C356.631 21.916 354.831 23.644 352.131 23.644C349.431 23.644 347.667 21.88 347.667 19.072C347.667 16.264 349.611 14.572 352.059 14.572C354.543 14.572 356.127 15.76 356.631 16.156L357.891 11.8C357.891 11.8 355.839 9.928 351.303 9.928C346.443 9.928 341.871 13.24 341.871 19.18C341.871 25.084 346.371 28.396 351.231 28.396C355.947 28.396 357.819 26.416 357.999 26.272L356.631 21.916Z" fill="#2C2C2C"/>
<path d="M366.51 5.212C366.51 3.448 365.178 2.224 363.234 2.224C361.29 2.224 359.958 3.448 359.958 5.212C359.958 7.012 361.29 8.2 363.234 8.2C365.178 8.2 366.51 7.012 366.51 5.212ZM366.114 10.252H360.354V28H366.114V10.252Z" fill="#2C2C2C"/>
<path d="M387.41 18.604C387.41 13.42 383.774 9.928 378.518 9.928C373.262 9.928 368.942 13.276 368.942 19.144C368.942 25.012 372.938 28.396 378.41 28.396C383.918 28.396 386.258 25.948 386.834 25.516L384.566 22.528C383.558 23.212 381.542 24.22 379.238 24.22C376.898 24.22 374.954 23.068 374.702 20.512H387.338C387.338 20.512 387.41 19.468 387.41 18.604ZM374.738 17.236C374.81 15.544 376.034 13.672 378.41 13.672C380.822 13.672 382.01 15.616 382.046 17.236H374.738Z" fill="#2C2C2C"/>
<path d="M407.484 17.524C407.484 13.24 406.152 9.928 401.004 9.928C398.448 9.928 396.828 11.224 395.856 12.808H395.784L395.82 10.252H390.06V28H395.82V19.216C395.82 16.66 396.504 14.644 398.988 14.644C401.364 14.644 401.724 16.408 401.724 18.748V28H407.484V17.524Z" fill="#2C2C2C"/>
<path d="M424.905 21.916C424.905 21.916 423.105 23.644 420.405 23.644C417.705 23.644 415.941 21.88 415.941 19.072C415.941 16.264 417.885 14.572 420.333 14.572C422.817 14.572 424.401 15.76 424.905 16.156L426.165 11.8C426.165 11.8 424.113 9.928 419.577 9.928C414.717 9.928 410.145 13.24 410.145 19.18C410.145 25.084 414.645 28.396 419.505 28.396C424.221 28.396 426.093 26.416 426.273 26.272L424.905 21.916Z" fill="#2C2C2C"/>
<path d="M445.98 18.604C445.98 13.42 442.344 9.928 437.088 9.928C431.832 9.928 427.512 13.276 427.512 19.144C427.512 25.012 431.508 28.396 436.98 28.396C442.488 28.396 444.828 25.948 445.404 25.516L443.136 22.528C442.128 23.212 440.112 24.22 437.808 24.22C435.468 24.22 433.524 23.068 433.272 20.512H445.908C445.908 20.512 445.98 19.468 445.98 18.604ZM433.308 17.236C433.38 15.544 434.604 13.672 436.98 13.672C439.392 13.672 440.58 15.616 440.616 17.236H433.308Z" fill="#2C2C2C"/>
<path d="M462.166 22.528C462.166 20.656 461.302 19.504 460.726 18.928C460.114 18.352 459.214 17.884 458.422 17.596C457.666 17.308 457.126 17.128 455.902 16.768C454.678 16.408 453.31 15.976 453.31 15.04C453.31 14.104 454.066 13.744 455.434 13.744C456.874 13.744 458.89 14.68 459.898 15.472L461.77 12.088C460.762 11.26 458.674 9.892 454.966 9.892C451.258 9.892 448.234 12.016 448.234 15.472C448.234 18.64 450.43 19.756 451.258 20.116C452.086 20.476 453.094 20.764 453.778 20.944C454.426 21.16 457.018 21.736 457.018 22.888C457.018 24.04 456.01 24.4 454.57 24.4C453.13 24.4 450.754 23.464 449.314 22.24L447.154 25.66C449.17 27.568 451.978 28.396 454.642 28.396C457.018 28.396 458.782 27.856 460.078 26.848C461.374 25.804 462.166 24.364 462.166 22.528Z" fill="#2C2C2C"/>
<path d="M240.408 3.12399H234.36L225 28H231.048L232.812 22.996H241.668L243.432 28H249.768L240.408 3.12399ZM234.144 18.46L237.24 9.53199L240.336 18.46H234.144Z" fill="#2C2C2C"/>
<path d="M263.509 10.252C263.509 10.252 262.897 9.92799 261.709 9.92799C259.801 9.92799 258.325 10.828 257.317 12.772H257.245L257.281 10.252H251.521V28H257.281V20.116C257.281 18.136 257.749 16.984 258.181 16.408C258.613 15.832 259.549 15.112 260.845 15.112C261.853 15.112 262.609 15.364 262.933 15.544H263.185L263.509 10.252Z" fill="#2C2C2C"/>
<path d="M276.027 10.288H272.103V5.46399H266.307V10.288H263.787V14.644H266.307V21.52C266.307 24.22 266.667 25.696 267.567 26.74C268.467 27.784 269.835 28.396 271.887 28.396C273.975 28.396 275.559 27.928 275.991 27.82L275.703 23.32C275.703 23.32 274.875 23.644 273.975 23.644C273.219 23.644 272.859 23.5 272.607 23.212C272.319 22.888 272.103 22.528 272.103 21.016V14.644H276.027V10.288Z" fill="#2C2C2C"/>
<path d="M291.881 22.528C291.881 20.656 291.017 19.504 290.441 18.928C289.829 18.352 288.929 17.884 288.137 17.596C287.381 17.308 286.841 17.128 285.617 16.768C284.393 16.408 283.025 15.976 283.025 15.04C283.025 14.104 283.781 13.744 285.149 13.744C286.589 13.744 288.605 14.68 289.613 15.472L291.485 12.088C290.477 11.26 288.389 9.89199 284.681 9.89199C280.973 9.89199 277.949 12.016 277.949 15.472C277.949 18.64 280.145 19.756 280.973 20.116C281.801 20.476 282.809 20.764 283.493 20.944C284.141 21.16 286.733 21.736 286.733 22.888C286.733 24.04 285.725 24.4 284.285 24.4C282.845 24.4 280.469 23.464 279.029 22.24L276.869 25.66C278.885 27.568 281.693 28.396 284.357 28.396C286.733 28.396 288.497 27.856 289.793 26.848C291.089 25.804 291.881 24.364 291.881 22.528Z" fill="#2C2C2C"/>
<path d="M17.255 3.85H0.245V6.685H7.07V28H10.465V6.685H17.255V3.85ZM34.4742 18.095C34.4742 14.14 33.3192 11.06 28.5242 11.06C26.1092 11.06 24.2892 12.355 23.4142 14H23.3442V3.85H20.0192V28H23.3442V19.775C23.3442 16.45 24.6392 13.825 27.6842 13.825C30.7292 13.825 31.1142 16.205 31.1142 18.585V28H34.4742V18.095ZM54.209 19.005C54.209 14.35 50.954 11.06 46.334 11.06C41.714 11.06 37.899 14.42 37.899 19.67C37.899 24.955 41.294 28.385 46.229 28.385C51.199 28.385 53.334 25.935 53.544 25.76L52.144 23.835C51.759 24.08 49.764 25.76 46.649 25.76C43.569 25.76 41.469 23.765 41.294 20.475H54.104C54.104 20.475 54.209 19.635 54.209 19.005ZM41.329 18.235C41.434 16.24 42.904 13.475 46.229 13.475C49.589 13.475 50.989 16.38 51.024 18.235H41.329ZM83.207 22.365C81.632 24.08 79.182 25.305 75.997 25.305C70.817 25.305 67.002 21.56 67.002 15.89C67.002 10.22 70.782 6.475 75.997 6.475C79.357 6.475 82.052 8.225 82.997 9.415L84.432 6.685C83.102 5.39 80.372 3.5 75.857 3.5C68.927 3.5 63.502 8.435 63.502 15.96C63.502 23.485 68.822 28.42 75.857 28.42C80.442 28.42 83.172 26.53 84.677 24.85L83.207 22.365ZM103.937 19.74C103.937 14.595 100.087 11.06 95.1516 11.06C90.1816 11.06 86.3316 14.595 86.3316 19.74C86.3316 24.92 90.1816 28.385 95.1516 28.385C100.087 28.385 103.937 24.92 103.937 19.74ZM100.542 19.635C100.542 22.925 98.4766 25.515 95.1516 25.515C91.7916 25.515 89.7266 22.925 89.7266 19.635C89.7266 16.38 91.7916 13.79 95.1516 13.79C98.4766 13.79 100.542 16.38 100.542 19.635ZM110.947 3.85H107.622V28H110.947V3.85ZM119.252 3.85H115.927V28H119.252V3.85ZM139.248 19.005C139.248 14.35 135.993 11.06 131.373 11.06C126.753 11.06 122.938 14.42 122.938 19.67C122.938 24.955 126.333 28.385 131.268 28.385C136.238 28.385 138.373 25.935 138.583 25.76L137.183 23.835C136.798 24.08 134.803 25.76 131.688 25.76C128.608 25.76 126.508 23.765 126.333 20.475H139.143C139.143 20.475 139.248 19.635 139.248 19.005ZM126.368 18.235C126.473 16.24 127.943 13.475 131.268 13.475C134.628 13.475 136.028 16.38 136.063 18.235H126.368ZM158.683 11.375H155.358L155.393 14H155.288C154.308 12.46 152.383 11.06 149.478 11.06C145.208 11.06 141.463 14.14 141.463 19.425C141.463 24.71 145.208 27.79 149.478 27.79C152.278 27.79 154.168 26.495 155.288 24.815H155.358V25.655C155.358 27.93 154.763 29.505 154.098 30.31C153.433 31.15 152.033 32.13 149.548 32.13C147.063 32.13 144.473 30.8 143.598 30.03L142.023 32.375C142.513 32.725 145.348 34.86 149.443 34.86C153.573 34.86 155.638 33.18 156.863 31.675C158.088 30.205 158.683 28.175 158.683 24.5V11.375ZM155.463 19.425C155.463 22.575 153.608 25.06 150.178 25.06C146.783 25.06 144.893 22.575 144.893 19.425C144.893 16.275 146.783 13.755 150.178 13.755C153.608 13.755 155.463 16.275 155.463 19.425ZM178.521 19.005C178.521 14.35 175.266 11.06 170.646 11.06C166.026 11.06 162.211 14.42 162.211 19.67C162.211 24.955 165.606 28.385 170.541 28.385C175.511 28.385 177.646 25.935 177.856 25.76L176.456 23.835C176.071 24.08 174.076 25.76 170.961 25.76C167.881 25.76 165.781 23.765 165.606 20.475H178.416C178.416 20.475 178.521 19.635 178.521 19.005ZM165.641 18.235C165.746 16.24 167.216 13.475 170.541 13.475C173.901 13.475 175.301 16.38 175.336 18.235H165.641ZM205.314 19.74C205.314 14.595 201.464 11.06 196.529 11.06C191.559 11.06 187.709 14.595 187.709 19.74C187.709 24.92 191.559 28.385 196.529 28.385C201.464 28.385 205.314 24.92 205.314 19.74ZM201.919 19.635C201.919 22.925 199.854 25.515 196.529 25.515C193.169 25.515 191.104 22.925 191.104 19.635C191.104 16.38 193.169 13.79 196.529 13.79C199.854 13.79 201.919 16.38 201.919 19.635ZM217.434 3.85C217.434 3.85 216.489 3.465 214.564 3.465C212.639 3.465 211.309 4.375 210.574 5.285C209.874 6.16 209.454 7.56 209.454 9.73V11.41H207.074V14.105H209.454V28H212.779V14.105H216.734V11.41H212.779V9.555C212.779 7.665 213.129 6.02 215.334 6.02C216.279 6.02 217.224 6.335 217.224 6.335L217.434 3.85Z" fill="black"/>
<path d="M321.32 27.5837L315.541 21.5835C316.903 20.2215 319.69 17.5459 320.28 15.9146H314.848C314.303 17.097 313.855 17.5459 312.375 18.2337L309.025 14.4421C311.491 13.1169 313.811 10.8714 313.811 7.92655C313.811 3.98775 310.35 1.99995 306.301 1.99995C302.215 1.99995 298.497 3.98775 298.497 8.07379C298.497 10.5401 299.896 12.1966 301.111 13.5587C297.834 14.9575 295 17.203 295 20.8473C295 25.8904 299.196 28.3199 303.908 28.3199C307.221 28.3199 309.467 27.2524 312.044 25.1542L314.547 27.8782H321.32V27.5837ZM308.804 8.1106C308.804 9.7303 307.111 10.7978 306.007 11.4972L305.16 10.577C304.755 10.0984 303.945 9.28856 303.945 8.18423C303.945 6.7854 304.939 5.93874 306.411 5.93874C307.847 5.93874 308.804 6.71178 308.804 8.1106ZM308.878 21.8044C307.921 22.8719 306.191 23.9394 304.313 23.9394C302.399 23.9394 300.743 22.651 300.743 20.6632C300.743 18.7122 302.252 17.6815 303.43 17.0189L304.166 16.614L308.878 21.8044Z" fill="#991C1C"/>
</svg>
