<svg fill="none" height="30" viewBox="0 0 30 30" width="30" xmlns="http://www.w3.org/2000/svg"><path d="m29.315 28.4949-6.437-6.683c1.517-1.517 4.622-4.497 5.2785-6.314h-6.0501c-.6064 1.317-1.1064 1.817-2.7544 2.583l-3.731-4.223c2.747-1.476 5.33-3.97696 5.33-7.25696 0-4.387-3.854-6.60099913-8.364-6.60099913-4.551 0-8.692 2.21399913-8.692 6.76499913 0 2.747 1.558 4.59196 2.911 6.10896-3.649 1.558-6.806 4.059-6.806 8.118 0 5.617 4.674 8.323 9.922 8.323 3.69 0 6.191-1.189 9.061-3.526l2.788 3.034h7.544zm-13.94-21.68896c0 1.804-1.886 2.993-3.116 3.77196l-.943-1.02496c-.451-.533-1.353-1.435-1.353-2.665 0-1.558 1.107-2.501 2.747-2.501 1.599 0 2.665.861 2.665 2.419zm.082 15.25196c-1.066 1.189-2.993 2.378-5.084 2.378-2.132 0-3.977-1.435-3.977-3.649 0-2.173 1.681-3.321 2.993-4.059l.82-.451z" fill="#991c1c"/></svg>