<svg xmlns="http://www.w3.org/2000/svg" xmlns:xlink="http://www.w3.org/1999/xlink">

<symbol viewBox="0 0 34 34" id="burger" xmlns="http://www.w3.org/2000/svg"><path d="M0 2a2 2 0 012-2h30a2 2 0 012 2v3.23H0V2zM0 9h34v6H0zM0 19h34v6H0zM0 28.77h34V32a2 2 0 01-2 2H2a2 2 0 01-2-2v-3.23z"/></symbol>

<symbol viewBox="0 0 52 32" id="chevron-down" xmlns="http://www.w3.org/2000/svg"><path d="M24.03 30.704L1.473 7.93a2.832 2.832 0 010-3.977l2.63-2.656a2.767 2.767 0 013.935-.005L26 19.341 43.962 1.29a2.767 2.767 0 013.934.005l2.631 2.656a2.831 2.831 0 010 3.977L27.97 30.704a2.767 2.767 0 01-3.94 0z"/></symbol>

<symbol fill="none" viewBox="0 0 52 52" id="search" xmlns="http://www.w3.org/2000/svg"><path d="M51.29 44.962L41.162 34.836a2.436 2.436 0 00-1.726-.711H37.78a21.021 21.021 0 004.469-13C42.25 9.455 32.794 0 21.125 0 9.455 0 0 9.455 0 21.125S9.455 42.25 21.125 42.25c4.905 0 9.415-1.666 13-4.469v1.656c0 .65.254 1.27.71 1.726L44.963 51.29a2.427 2.427 0 003.443 0l2.874-2.874a2.449 2.449 0 00.01-3.453zM21.124 34.125c-7.18 0-13-5.81-13-13 0-7.18 5.81-13 13-13 7.18 0 13 5.81 13 13 0 7.18-5.81 13-13 13z" fill="#000"/></symbol>

<clipPath id="mask-1" clipPathUnits="objectBoundingBox">
    <path d="M0.016,0.973 L0.002,0.013 C0.002,0.007,0.005,0.003,0.009,0.003 L0.979,0.024 C0.982,0.024,0.985,0.028,0.985,0.034 L1,0.992 C1,0.998,0.999,1,0.995,1 L0.022,0.983 C0.019,0.983,0.016,0.978,0.016,0.973" />
</clipPath> 

<clipPath id="mask-2" clipPathUnits="objectBoundingBox">
    <path d="M0.002,0.969 L0.014,0.019 C0.014,0.013,0.017,0.009,0.021,0.009 L0.995,0.001 C0.999,0.001,1,0.006,1,0.012 L0.994,0.991 C0.994,0.997,0.991,1,0.988,1 L0.008,0.98 C0.005,0.98,0.002,0.975,0.002,0.969" />
</clipPath>

<clipPath id="mask-3" clipPathUnits="objectBoundingBox">
    <path d="M0.002,0.978 L0.01,0.012 C0.01,0.006,0.013,0.001,0.017,0.001 L0.995,0.027 C0.999,0.027,1,0.032,1,0.037 L0.992,0.991 C0.992,0.997,0.989,1,0.985,1 L0.009,0.989 C0.005,0.989,0.002,0.984,0.002,0.978" />
</clipPath>

<clipPath id="pano-mask-1" clipPathUnits="objectBoundingBox">
    <path d="M0.993,0.02 L0.012,0 C0.008,0,0.005,0.005,0.005,0.012 L0,0.988 C0,0.995,0.003,1,0.007,1 L0.993,0.986 C0.997,0.986,1,0.98,1,0.974 V0.032 C1,0.026,0.997,0.02,0.993,0.02" />
</clipPath>

<clipPath id="open-quote" clipPathUnits="objectBoundingBox">
    <path d="M0.719,0 L1,0 L0.821,1 L0.489,1 L0.719,0 M0.231,0 L0.514,0 L0.335,1 L0,1 L0.231,0" />
</clipPath>

<clipPath id="close-quote" clipPathUnits="objectBoundingBox">
    <path d="M0.321,1 L0.532,0 L0.165,0 L0,1 L0.321,1 M0.789,1 L1,0 L0.633,0 L0.468,1 L0.789,1" />
</clipPath>

<clipPath id="chevron-up" clipPathUnits="objectBoundingBox">
    <path d="M0.541,0.027 L0.958,0.76 C0.98,0.795,1,0.853,0.993,0.888 L0.94,0.973 C0.919,1,0.883,1,0.861,0.974 L0.5,0.294 L0.141,0.974 C0.119,1,0.084,1,0.062,0.973 L0.009,0.888 C-0.013,0.853,0.009,0.795,0.031,0.76 L0.462,0.027 C0.483,-0.009,0.519,-0.009,0.541,0.027" />
</clipPath>

<clipPath id="twitter" clipPathUnits="objectBoundingBox">
    <path d="M0.792,0 h-0.583 c-0.115,0,-0.208,0.093,-0.208,0.208 v0.583 c0,0.115,0.093,0.208,0.208,0.208 h0.583 c0.115,0,0.208,-0.093,0.208,-0.208 v-0.583 c0,-0.115,-0.093,-0.208,-0.208,-0.208 m-0.006,0.385 c0.009,0.192,-0.135,0.407,-0.389,0.407 c-0.077,0,-0.149,-0.023,-0.21,-0.061 c0.073,0.009,0.145,-0.012,0.203,-0.057 c-0.06,-0.001,-0.11,-0.041,-0.128,-0.095 c0.021,0.004,0.043,0.003,0.062,-0.002 c-0.066,-0.013,-0.111,-0.072,-0.11,-0.136 c0.018,0.01,0.04,0.016,0.062,0.017 c-0.061,-0.041,-0.078,-0.121,-0.042,-0.183 c0.067,0.083,0.168,0.137,0.282,0.143 c-0.02,-0.086,0.045,-0.168,0.133,-0.168 c0.039,0,0.075,0.017,0.1,0.043 c0.031,-0.006,0.06,-0.017,0.087,-0.033 c-0.01,0.032,-0.032,0.059,-0.06,0.076 c0.028,-0.003,0.054,-0.011,0.079,-0.022 c-0.018,0.027,-0.041,0.051,-0.068,0.071" />
</clipPath>

<clipPath id="facebook" clipPathUnits="objectBoundingBox">
    <path d="M1,0.506 c0,-0.278,-0.224,-0.503,-0.5,-0.503 s-0.5,0.225,-0.5,0.503 c0,0.251,0.183,0.459,0.422,0.497 v-0.351 H0.295 v-0.145 h0.127 V0.395 c0,-0.126,0.075,-0.196,0.189,-0.196 c0.055,0,0.112,0.01,0.112,0.01 v0.124 H0.66 c-0.062,0,-0.081,0.039,-0.081,0.079 v0.094 h0.139 l-0.022,0.145 h-0.116 v0.351 C0.817,0.965,1,0.757,1,0.506" />
</clipPath>

<clipPath id="instagram" clipPathUnits="objectBoundingBox">
    <path d="M0.5,0 C0.364,0,0.347,0.001,0.294,0.003 C0.241,0.006,0.204,0.014,0.172,0.026 c-0.033,0.013,-0.061,0.03,-0.089,0.058 S0.039,0.14,0.026,0.173 C0.014,0.204,0.005,0.241,0.003,0.294 C0,0.347,0,0.364,0,0.5 s0.001,0.153,0.003,0.206 c0.002,0.053,0.011,0.09,0.023,0.121 c0.013,0.033,0.03,0.061,0.058,0.089 c0.028,0.028,0.056,0.045,0.089,0.058 c0.032,0.012,0.068,0.021,0.121,0.023 C0.347,1,0.364,1,0.5,1 s0.153,-0.001,0.206,-0.003 c0.053,-0.002,0.089,-0.011,0.121,-0.023 c0.033,-0.013,0.061,-0.03,0.089,-0.058 c0.028,-0.028,0.045,-0.056,0.058,-0.089 c0.012,-0.032,0.021,-0.068,0.023,-0.121 c0.002,-0.053,0.003,-0.07,0.003,-0.206 s-0.001,-0.153,-0.003,-0.206 c-0.002,-0.053,-0.011,-0.09,-0.023,-0.121 c-0.013,-0.033,-0.03,-0.061,-0.058,-0.089 C0.888,0.056,0.86,0.039,0.827,0.026 c-0.032,-0.012,-0.068,-0.021,-0.121,-0.023 C0.653,0.001,0.636,0,0.5,0 m0,0.09 c0.133,0,0.149,0.001,0.202,0.003 c0.049,0.002,0.075,0.01,0.093,0.017 c0.023,0.009,0.04,0.02,0.058,0.037 c0.017,0.017,0.028,0.034,0.037,0.058 c0.007,0.018,0.015,0.044,0.017,0.093 c0.002,0.053,0.003,0.069,0.003,0.202 s-0.001,0.149,-0.003,0.202 c-0.003,0.049,-0.011,0.075,-0.018,0.093 c-0.009,0.023,-0.02,0.04,-0.037,0.058 c-0.017,0.017,-0.034,0.028,-0.057,0.037 c-0.017,0.007,-0.044,0.015,-0.093,0.017 c-0.053,0.002,-0.069,0.003,-0.202,0.003 c-0.134,0,-0.149,-0.001,-0.202,-0.003 c-0.049,-0.003,-0.076,-0.011,-0.093,-0.018 c-0.024,-0.009,-0.04,-0.02,-0.057,-0.037 c-0.018,-0.017,-0.029,-0.034,-0.037,-0.057 c-0.007,-0.017,-0.015,-0.044,-0.017,-0.093 c-0.002,-0.052,-0.003,-0.069,-0.003,-0.202 c0,-0.133,0.001,-0.149,0.003,-0.203 c0.003,-0.049,0.011,-0.076,0.017,-0.093 c0.009,-0.024,0.02,-0.04,0.037,-0.058 c0.017,-0.017,0.034,-0.029,0.057,-0.037 c0.017,-0.007,0.044,-0.015,0.093,-0.018 c0.053,-0.002,0.069,-0.002,0.202,-0.002 l0.002,0.001 m0,0.153 c-0.142,0,-0.257,0.115,-0.257,0.257 c0,0.142,0.115,0.257,0.257,0.257 c0.142,0,0.257,-0.115,0.257,-0.257 c0,-0.142,-0.115,-0.257,-0.257,-0.257 M0.5,0.667 c-0.092,0,-0.167,-0.075,-0.167,-0.167 s0.075,-0.167,0.167,-0.167 s0.167,0.075,0.167,0.167 s-0.075,0.167,-0.167,0.167 m0.327,-0.434 c0,0.033,-0.027,0.06,-0.06,0.06 c-0.033,0,-0.06,-0.027,-0.06,-0.06 c0,-0.033,0.027,-0.06,0.06,-0.06 c0.033,0,0.06,0.027,0.06,0.06" />
</clipPath>

<clipPath id="bigamp" clipPathUnits="objectBoundingBox">
    <path d="m1,0.972,-0.22,-0.228 c0.052,-0.052,0.158,-0.153,0.18,-0.215 h-0.206 c-0.021,0.045,-0.038,0.062,-0.094,0.088 l-0.127,-0.144 c0.094,-0.05,0.182,-0.136,0.182,-0.248 c0,-0.15,-0.131,-0.225,-0.285,-0.225 c-0.155,0,-0.297,0.076,-0.297,0.231 c0,0.094,0.053,0.157,0.099,0.208 c-0.124,0.053,-0.232,0.138,-0.232,0.277 c0,0.192,0.159,0.284,0.338,0.284 c0.126,0,0.211,-0.041,0.309,-0.12 l0.095,0.103 h0.257 m-0.476,-0.74 c0,0.062,-0.064,0.102,-0.106,0.129 l-0.032,-0.035 c-0.015,-0.018,-0.046,-0.049,-0.046,-0.091 c0,-0.053,0.038,-0.085,0.094,-0.085 c0.055,0,0.091,0.029,0.091,0.083 m0.003,0.52 c-0.036,0.041,-0.102,0.081,-0.173,0.081 c-0.073,0,-0.136,-0.049,-0.136,-0.124 c0,-0.074,0.057,-0.113,0.102,-0.138 l0.028,-0.015" />
</clipPath>



<symbol viewBox="0 0 241 72" fill="none" xmlns="http://www.w3.org/2000/svg" id="whitelogo">
<path d="M118.044 50.44C118.044 48.208 117.144 46.696 116.1 45.652C114.984 44.536 113.328 43.888 112.644 43.636C111.852 43.312 110.016 42.664 108.936 42.232C107.82 41.8 106.416 41.224 106.416 39.712C106.416 38.2 107.784 37.48 109.656 37.48C111.528 37.48 113.76 38.56 115.2 40L117.684 35.932C115.992 34.24 112.68 32.872 109.8 32.872C106.92 32.872 104.652 33.664 103.248 34.852C101.808 36.04 100.656 37.912 100.656 40.288C100.656 42.628 101.52 44.068 102.6 45.076C103.68 46.12 104.94 46.588 105.552 46.876C106.38 47.236 108.252 47.884 109.332 48.28C110.412 48.676 112.248 49.324 112.248 51.016C112.248 52.672 110.808 53.572 108.936 53.572C107.028 53.572 104.256 52.312 102.456 50.44L99.576 54.688C101.592 56.56 104.796 58.432 108.396 58.432C111.06 58.432 113.364 57.784 115.128 56.38C116.928 54.976 118.044 52.816 118.044 50.44ZM134.487 51.916C134.487 51.916 132.687 53.644 129.987 53.644C127.287 53.644 125.523 51.88 125.523 49.072C125.523 46.264 127.467 44.572 129.915 44.572C132.399 44.572 133.983 45.76 134.487 46.156L135.747 41.8C135.747 41.8 133.695 39.928 129.159 39.928C124.299 39.928 119.727 43.24 119.727 49.18C119.727 55.084 124.227 58.396 129.087 58.396C133.803 58.396 135.675 56.416 135.855 56.272L134.487 51.916ZM144.366 35.212C144.366 33.448 143.034 32.224 141.09 32.224C139.146 32.224 137.814 33.448 137.814 35.212C137.814 37.012 139.146 38.2 141.09 38.2C143.034 38.2 144.366 37.012 144.366 35.212ZM143.97 40.252H138.21V58H143.97V40.252ZM165.266 48.604C165.266 43.42 161.63 39.928 156.374 39.928C151.118 39.928 146.798 43.276 146.798 49.144C146.798 55.012 150.794 58.396 156.266 58.396C161.774 58.396 164.114 55.948 164.69 55.516L162.422 52.528C161.414 53.212 159.398 54.22 157.094 54.22C154.754 54.22 152.81 53.068 152.558 50.512H165.194C165.194 50.512 165.266 49.468 165.266 48.604ZM152.594 47.236C152.666 45.544 153.89 43.672 156.266 43.672C158.678 43.672 159.866 45.616 159.902 47.236H152.594ZM185.34 47.524C185.34 43.24 184.008 39.928 178.86 39.928C176.304 39.928 174.684 41.224 173.712 42.808H173.64L173.676 40.252H167.916V58H173.676V49.216C173.676 46.66 174.36 44.644 176.844 44.644C179.22 44.644 179.58 46.408 179.58 48.748V58H185.34V47.524ZM202.761 51.916C202.761 51.916 200.961 53.644 198.261 53.644C195.561 53.644 193.797 51.88 193.797 49.072C193.797 46.264 195.741 44.572 198.189 44.572C200.673 44.572 202.257 45.76 202.761 46.156L204.021 41.8C204.021 41.8 201.969 39.928 197.433 39.928C192.573 39.928 188.001 43.24 188.001 49.18C188.001 55.084 192.501 58.396 197.361 58.396C202.077 58.396 203.949 56.416 204.129 56.272L202.761 51.916ZM223.836 48.604C223.836 43.42 220.2 39.928 214.944 39.928C209.688 39.928 205.368 43.276 205.368 49.144C205.368 55.012 209.364 58.396 214.836 58.396C220.344 58.396 222.684 55.948 223.26 55.516L220.992 52.528C219.984 53.212 217.968 54.22 215.664 54.22C213.324 54.22 211.38 53.068 211.128 50.512H223.764C223.764 50.512 223.836 49.468 223.836 48.604ZM211.164 47.236C211.236 45.544 212.46 43.672 214.836 43.672C217.248 43.672 218.436 45.616 218.472 47.236H211.164ZM240.022 52.528C240.022 50.656 239.158 49.504 238.582 48.928C237.97 48.352 237.07 47.884 236.278 47.596C235.522 47.308 234.982 47.128 233.758 46.768C232.534 46.408 231.166 45.976 231.166 45.04C231.166 44.104 231.922 43.744 233.29 43.744C234.73 43.744 236.746 44.68 237.754 45.472L239.626 42.088C238.618 41.26 236.53 39.892 232.822 39.892C229.114 39.892 226.09 42.016 226.09 45.472C226.09 48.64 228.286 49.756 229.114 50.116C229.942 50.476 230.95 50.764 231.634 50.944C232.282 51.16 234.874 51.736 234.874 52.888C234.874 54.04 233.866 54.4 232.426 54.4C230.986 54.4 228.61 53.464 227.17 52.24L225.01 55.66C227.026 57.568 229.834 58.396 232.498 58.396C234.874 58.396 236.638 57.856 237.934 56.848C239.23 55.804 240.022 54.364 240.022 52.528Z" fill="#DFDFDF"/>
<path d="M16.264 33.124H10.216L0.856 58H6.904L8.668 52.996H17.524L19.288 58H25.624L16.264 33.124ZM10 48.46L13.096 39.532L16.192 48.46H10ZM39.3648 40.252C39.3648 40.252 38.7528 39.928 37.5648 39.928C35.6568 39.928 34.1808 40.828 33.1728 42.772H33.1008L33.1368 40.252H27.3768V58H33.1368V50.116C33.1368 48.136 33.6048 46.984 34.0368 46.408C34.4688 45.832 35.4048 45.112 36.7008 45.112C37.7088 45.112 38.4648 45.364 38.7888 45.544H39.0408L39.3648 40.252ZM51.8826 40.288H47.9586V35.464H42.1626V40.288H39.6426V44.644H42.1626V51.52C42.1626 54.22 42.5226 55.696 43.4226 56.74C44.3226 57.784 45.6906 58.396 47.7426 58.396C49.8306 58.396 51.4146 57.928 51.8466 57.82L51.5586 53.32C51.5586 53.32 50.7306 53.644 49.8306 53.644C49.0746 53.644 48.7146 53.5 48.4626 53.212C48.1746 52.888 47.9586 52.528 47.9586 51.016V44.644H51.8826V40.288ZM67.737 52.528C67.737 50.656 66.873 49.504 66.297 48.928C65.685 48.352 64.785 47.884 63.993 47.596C63.237 47.308 62.697 47.128 61.473 46.768C60.249 46.408 58.881 45.976 58.881 45.04C58.881 44.104 59.637 43.744 61.005 43.744C62.445 43.744 64.461 44.68 65.469 45.472L67.341 42.088C66.333 41.26 64.245 39.892 60.537 39.892C56.829 39.892 53.805 42.016 53.805 45.472C53.805 48.64 56.001 49.756 56.829 50.116C57.657 50.476 58.665 50.764 59.349 50.944C59.997 51.16 62.589 51.736 62.589 52.888C62.589 54.04 61.581 54.4 60.141 54.4C58.701 54.4 56.325 53.464 54.885 52.24L52.725 55.66C54.741 57.568 57.549 58.396 60.213 58.396C62.589 58.396 64.353 57.856 65.649 56.848C66.945 55.804 67.737 54.364 67.737 52.528Z" fill="#DFDFDF"/>
<path d="M16.804 2.68H3.196V4.948H8.656V22H11.372V4.948H16.804V2.68ZM30.5793 14.076C30.5793 10.912 29.6553 8.448 25.8193 8.448C23.8873 8.448 22.4313 9.484 21.7313 10.8H21.6753V2.68H19.0153V22H21.6753V15.42C21.6753 12.76 22.7113 10.66 25.1473 10.66C27.5833 10.66 27.8913 12.564 27.8913 14.468V22H30.5793V14.076ZM46.3672 14.804C46.3672 11.08 43.7632 8.448 40.0672 8.448C36.3712 8.448 33.3192 11.136 33.3192 15.336C33.3192 19.564 36.0352 22.308 39.9832 22.308C43.9592 22.308 45.6672 20.348 45.8352 20.208L44.7152 18.668C44.4072 18.864 42.8112 20.208 40.3192 20.208C37.8552 20.208 36.1752 18.612 36.0352 15.98H46.2832C46.2832 15.98 46.3672 15.308 46.3672 14.804ZM36.0632 14.188C36.1472 12.592 37.3232 10.38 39.9832 10.38C42.6712 10.38 43.7912 12.704 43.8192 14.188H36.0632ZM69.5656 17.492C68.3056 18.864 66.3456 19.844 63.7976 19.844C59.6536 19.844 56.6016 16.848 56.6016 12.312C56.6016 7.776 59.6256 4.78 63.7976 4.78C66.4856 4.78 68.6416 6.18 69.3976 7.132L70.5456 4.948C69.4816 3.912 67.2976 2.4 63.6856 2.4C58.1416 2.4 53.8016 6.348 53.8016 12.368C53.8016 18.388 58.0576 22.336 63.6856 22.336C67.3536 22.336 69.5376 20.824 70.7416 19.48L69.5656 17.492ZM86.1493 15.392C86.1493 11.276 83.0693 8.448 79.1213 8.448C75.1453 8.448 72.0653 11.276 72.0653 15.392C72.0653 19.536 75.1453 22.308 79.1213 22.308C83.0693 22.308 86.1493 19.536 86.1493 15.392ZM83.4333 15.308C83.4333 17.94 81.7813 20.012 79.1213 20.012C76.4333 20.012 74.7813 17.94 74.7813 15.308C74.7813 12.704 76.4333 10.632 79.1213 10.632C81.7813 10.632 83.4333 12.704 83.4333 15.308ZM91.7574 2.68H89.0974V22H91.7574V2.68ZM98.4019 2.68H95.7419V22H98.4019V2.68ZM114.398 14.804C114.398 11.08 111.794 8.448 108.098 8.448C104.402 8.448 101.35 11.136 101.35 15.336C101.35 19.564 104.066 22.308 108.014 22.308C111.99 22.308 113.698 20.348 113.866 20.208L112.746 18.668C112.438 18.864 110.842 20.208 108.35 20.208C105.886 20.208 104.206 18.612 104.066 15.98H114.314C114.314 15.98 114.398 15.308 114.398 14.804ZM104.094 14.188C104.178 12.592 105.354 10.38 108.014 10.38C110.702 10.38 111.822 12.704 111.85 14.188H104.094ZM129.947 8.7H127.287L127.315 10.8H127.231C126.447 9.568 124.907 8.448 122.583 8.448C119.167 8.448 116.171 10.912 116.171 15.14C116.171 19.368 119.167 21.832 122.583 21.832C124.823 21.832 126.335 20.796 127.231 19.452H127.287V20.124C127.287 21.944 126.811 23.204 126.279 23.848C125.747 24.52 124.627 25.304 122.639 25.304C120.651 25.304 118.579 24.24 117.879 23.624L116.619 25.5C117.011 25.78 119.279 27.488 122.555 27.488C125.859 27.488 127.511 26.144 128.491 24.94C129.471 23.764 129.947 22.14 129.947 19.2V8.7ZM127.371 15.14C127.371 17.66 125.887 19.648 123.143 19.648C120.427 19.648 118.915 17.66 118.915 15.14C118.915 12.62 120.427 10.604 123.143 10.604C125.887 10.604 127.371 12.62 127.371 15.14ZM145.816 14.804C145.816 11.08 143.212 8.448 139.516 8.448C135.82 8.448 132.768 11.136 132.768 15.336C132.768 19.564 135.484 22.308 139.432 22.308C143.408 22.308 145.116 20.348 145.284 20.208L144.164 18.668C143.856 18.864 142.26 20.208 139.768 20.208C137.304 20.208 135.624 18.612 135.484 15.98H145.732C145.732 15.98 145.816 15.308 145.816 14.804ZM135.512 14.188C135.596 12.592 136.772 10.38 139.432 10.38C142.12 10.38 143.24 12.704 143.268 14.188H135.512ZM167.251 15.392C167.251 11.276 164.171 8.448 160.223 8.448C156.247 8.448 153.167 11.276 153.167 15.392C153.167 19.536 156.247 22.308 160.223 22.308C164.171 22.308 167.251 19.536 167.251 15.392ZM164.535 15.308C164.535 17.94 162.883 20.012 160.223 20.012C157.535 20.012 155.883 17.94 155.883 15.308C155.883 12.704 157.535 10.632 160.223 10.632C162.883 10.632 164.535 12.704 164.535 15.308ZM176.947 2.68C176.947 2.68 176.191 2.372 174.651 2.372C173.111 2.372 172.047 3.1 171.459 3.828C170.899 4.528 170.563 5.648 170.563 7.384V8.728H168.659V10.884H170.563V22H173.223V10.884H176.387V8.728H173.223V7.244C173.223 5.732 173.503 4.416 175.267 4.416C176.023 4.416 176.779 4.668 176.779 4.668L176.947 2.68Z" fill="#DFDFDF"/>
<path d="M97.32 57.5837L91.5406 51.5835C92.9027 50.2215 95.6904 47.5459 96.2799 45.9146H90.8479C90.3034 47.097 89.8545 47.5459 88.3749 48.2337L85.0251 44.4421C87.4914 43.1169 89.8105 40.8714 89.8105 37.9265C89.8105 33.9877 86.3503 31.9999 82.301 31.9999C78.215 31.9999 74.4971 33.9877 74.4971 38.0738C74.4971 40.5401 75.8959 42.1966 77.1107 43.5587C73.8345 44.9575 71 47.203 71 50.8473C71 55.8904 75.1965 58.3199 79.9083 58.3199C83.2213 58.3199 85.4668 57.2524 88.0436 55.1542L90.5467 57.8782H97.32V57.5837ZM84.8042 38.1106C84.8042 39.7303 83.1109 40.7978 82.0065 41.4972L81.1599 40.577C80.755 40.0984 79.9451 39.2886 79.9451 38.1842C79.9451 36.7854 80.939 35.9387 82.4115 35.9387C83.8471 35.9387 84.8042 36.7118 84.8042 38.1106ZM84.8778 51.8044C83.9207 52.8719 82.1906 53.9394 80.3132 53.9394C78.399 53.9394 76.7425 52.651 76.7425 50.6632C76.7425 48.7122 78.2518 47.6815 79.4298 47.0189L80.166 46.614L84.8778 51.8044Z" fill="white"/>
</symbol>



</svg>

